<svg width="22" height="22" viewBox="0 0 22 22" fill="none" xmlns="http://www.w3.org/2000/svg">
<path fill-rule="evenodd" clip-rule="evenodd" d="M8.02226 16.1777C7.81604 15.9714 7.7002 15.6917 7.7002 15.4C7.7002 15.1083 7.81604 14.8286 8.02226 14.6223L11.6446 11L8.02226 7.37767C7.82189 7.17021 7.71101 6.89235 7.71352 6.60393C7.71602 6.31551 7.83171 6.03962 8.03566 5.83567C8.23961 5.63172 8.5155 5.51604 8.80392 5.51353C9.09234 5.51102 9.3702 5.6219 9.57766 5.82227L13.9777 10.2223C14.1839 10.4286 14.2997 10.7083 14.2997 11C14.2997 11.2917 14.1839 11.5714 13.9777 11.7777L9.57766 16.1777C9.37138 16.3839 9.09164 16.4997 8.79996 16.4997C8.50828 16.4997 8.22854 16.3839 8.02226 16.1777Z" fill="#111827"/>
</svg>
