<svg width="22" height="22" viewBox="0 0 22 22" fill="none" xmlns="http://www.w3.org/2000/svg">
<path d="M13.695 4.75748C14.0415 4.35807 14.3058 3.89414 14.4725 3.39232C14.6392 2.89051 14.7052 2.3607 14.6666 1.83331C13.6027 1.91919 12.6151 2.41957 11.9166 3.22665C11.5822 3.61346 11.3287 4.06345 11.1712 4.54999C11.0138 5.03652 10.9555 5.5497 11 6.05915C11.5189 6.06347 12.0319 5.94832 12.4993 5.7226C12.9666 5.49688 13.3757 5.16666 13.695 4.75748ZM16.005 11.5775C16.0111 10.8751 16.1961 10.1858 16.5426 9.57475C16.889 8.96368 17.3854 8.45097 17.985 8.08498C17.6066 7.53978 17.1064 7.09024 16.524 6.77201C15.9417 6.45379 15.2932 6.27562 14.63 6.25165C13.2 6.10498 11.88 7.08581 11.1191 7.08581C10.3583 7.08581 9.28581 6.26998 8.09415 6.28831C7.3151 6.31398 6.556 6.54111 5.89089 6.94757C5.22578 7.35402 4.67737 7.92592 4.29915 8.60748C2.68581 11.4125 3.88665 15.5833 5.49998 17.8475C6.23331 18.9566 7.14998 20.2125 8.35998 20.1666C9.56998 20.1208 9.96415 19.415 11.3666 19.415C12.7691 19.415 13.2 20.1666 14.3916 20.1391C15.5833 20.1116 16.4266 19.0025 17.1966 17.8933C17.7421 17.088 18.1682 16.2081 18.4616 15.2808C17.7352 14.971 17.1154 14.4552 16.6788 13.797C16.2422 13.1389 16.0079 12.3673 16.005 11.5775Z" fill="#111827"/>
</svg>
