<svg width="22" height="22" viewBox="0 0 22 22" fill="none" xmlns="http://www.w3.org/2000/svg">
<path d="M18.7957 14.4316C18.2348 14.1918 17.7571 13.792 17.4221 13.2822C17.0872 12.7724 16.9098 12.1752 16.9122 11.5652C16.9195 11.0207 17.0653 10.4871 17.3359 10.0145C17.6066 9.54201 17.9931 9.14621 18.4591 8.86445C18.5645 8.7993 18.6557 8.71345 18.727 8.61208C18.7983 8.51071 18.8483 8.39594 18.874 8.2747C18.8997 8.15345 18.9005 8.02826 18.8764 7.90668C18.8523 7.78511 18.8039 7.66968 18.7339 7.56737C18.315 6.95821 17.7689 6.44721 17.1334 6.06964C16.4978 5.69208 15.7878 5.45693 15.0525 5.38045C15.7369 4.29432 16.0475 3.01425 15.9369 1.73525C15.9153 1.50301 15.8046 1.28815 15.6281 1.13577C15.4515 0.983381 15.2227 0.905316 14.9898 0.917952C13.4159 1.05824 11.9568 1.8006 10.9167 2.9903C10.2575 3.75423 9.79222 4.66596 9.56054 5.64809C9.08187 5.4861 8.58073 5.40031 8.07543 5.39386C7.13996 5.42037 6.22721 5.68815 5.42568 6.17121C4.62415 6.65428 3.96102 7.33625 3.50061 8.151C1.77022 11.1552 2.82877 15.6571 4.70327 18.3668C5.45522 19.4527 6.5836 21.0828 8.28579 21.0828C8.31936 21.0828 8.35338 21.0828 8.38739 21.081C8.95772 21.0486 9.51608 20.9041 10.0305 20.6558C10.4414 20.4475 10.8947 20.3366 11.3554 20.3317C11.7886 20.337 12.2146 20.443 12.5997 20.6414C13.1624 20.9077 13.7756 21.0502 14.3981 21.0595C16.1518 21.0264 17.1875 19.5135 17.9439 18.408C18.5408 17.5298 19.0078 16.5701 19.3305 15.5586C19.3993 15.3379 19.3825 15.0994 19.2834 14.8906C19.1843 14.6817 19.0102 14.5179 18.7957 14.4316ZM12.3047 4.18717C12.7862 3.64862 13.3894 3.23304 14.0642 2.9751C13.9166 3.70132 13.5899 4.37918 13.114 4.94718C12.7909 5.33481 12.3978 5.65824 11.9552 5.90058L11.9525 5.9015C11.9265 5.91224 11.9006 5.92209 11.8746 5.93283C11.7036 5.99997 11.4923 6.08322 11.3294 6.13693C11.4867 5.41581 11.822 4.74553 12.3047 4.18717ZM16.4311 17.3732C15.6943 18.4492 15.1147 19.2128 14.3645 19.2262C14.0019 19.2251 13.6454 19.1331 13.3275 18.9586C12.713 18.6592 12.0389 18.5019 11.3554 18.4984C10.6481 18.502 9.95035 18.6625 9.31258 18.9684C9.0025 19.1267 8.66421 19.2222 8.31713 19.2495H8.28983C7.54458 19.2495 6.74296 18.092 6.21077 17.323C4.87918 15.3984 3.651 11.5634 5.08956 9.06586C5.39122 8.5254 5.82746 8.0721 6.35596 7.74994C6.88446 7.42779 7.48726 7.24772 8.10587 7.22721L8.13675 7.2263C8.65859 7.27065 9.16818 7.40862 9.64111 7.63361C9.76151 7.68104 9.88012 7.72849 9.99784 7.77235C10.0278 7.78489 10.0587 7.79653 10.09 7.80637C10.4162 7.93758 10.7628 8.01118 11.1141 8.02391C11.6116 7.98437 12.0976 7.85358 12.5478 7.63808C13.1824 7.3301 13.8799 7.1741 14.5852 7.18243C15.3397 7.21195 16.0639 7.48663 16.6482 7.96483C16.1489 8.42487 15.7513 8.98429 15.481 9.60712C15.2108 10.23 15.0738 10.9024 15.0789 11.5814V11.5823C15.0737 12.4042 15.2771 13.214 15.6701 13.9359C16.0631 14.6578 16.6327 15.2682 17.3258 15.71C17.0845 16.2932 16.7847 16.8504 16.4311 17.3732Z" fill="#111827"/>
</svg>
