<svg width="22" height="22" viewBox="0 0 22 22" fill="none" xmlns="http://www.w3.org/2000/svg">
<path d="M15.5833 10.0833H8.62578L11.6508 7.0675C11.8234 6.89489 11.9204 6.66077 11.9204 6.41666C11.9204 6.17255 11.8234 5.93844 11.6508 5.76583C11.4782 5.59322 11.2441 5.49625 10.9999 5.49625C10.7558 5.49625 10.5217 5.59322 10.3491 5.76583L5.76578 10.3492C5.68233 10.4363 5.61691 10.5391 5.57328 10.6517C5.4816 10.8748 5.4816 11.1252 5.57328 11.3483C5.61691 11.4609 5.68233 11.5637 5.76578 11.6508L10.3491 16.2342C10.4343 16.3201 10.5357 16.3883 10.6474 16.4348C10.7591 16.4814 10.8789 16.5053 10.9999 16.5053C11.121 16.5053 11.2408 16.4814 11.3525 16.4348C11.4642 16.3883 11.5656 16.3201 11.6508 16.2342C11.7367 16.1489 11.8049 16.0476 11.8514 15.9359C11.898 15.8242 11.9219 15.7043 11.9219 15.5833C11.9219 15.4623 11.898 15.3425 11.8514 15.2308C11.8049 15.1191 11.7367 15.0177 11.6508 14.9325L8.62578 11.9167H15.5833C15.8264 11.9167 16.0596 11.8201 16.2315 11.6482C16.4034 11.4763 16.4999 11.2431 16.4999 11C16.4999 10.7569 16.4034 10.5237 16.2315 10.3518C16.0596 10.1799 15.8264 10.0833 15.5833 10.0833Z" fill="#111827"/>
</svg>
