<svg width="22" height="22" viewBox="0 0 22 22" fill="none" xmlns="http://www.w3.org/2000/svg">
<path d="M16.4266 6.06833C16.3336 5.84435 16.1556 5.66635 15.9316 5.57333C15.8214 5.52636 15.7031 5.50145 15.5833 5.5H6.41661C6.1735 5.5 5.94034 5.59658 5.76843 5.76849C5.59652 5.94039 5.49994 6.17355 5.49994 6.41667C5.49994 6.65978 5.59652 6.89294 5.76843 7.06485C5.94034 7.23676 6.1735 7.33333 6.41661 7.33333H13.3741L5.76578 14.9325C5.67986 15.0177 5.61167 15.1191 5.56513 15.2308C5.51859 15.3425 5.49463 15.4623 5.49463 15.5833C5.49463 15.7043 5.51859 15.8242 5.56513 15.9359C5.61167 16.0476 5.67986 16.1489 5.76578 16.2342C5.85099 16.3201 5.95238 16.3883 6.06408 16.4348C6.17579 16.4814 6.2956 16.5053 6.41661 16.5053C6.53762 16.5053 6.65744 16.4814 6.76914 16.4348C6.88084 16.3883 6.98223 16.3201 7.06744 16.2342L14.6666 8.62583V15.5833C14.6666 15.8264 14.7632 16.0596 14.9351 16.2315C15.107 16.4034 15.3402 16.5 15.5833 16.5C15.8264 16.5 16.0596 16.4034 16.2315 16.2315C16.4034 16.0596 16.4999 15.8264 16.4999 15.5833V6.41667C16.4985 6.29688 16.4736 6.17854 16.4266 6.06833Z" fill="#111827"/>
</svg>
