<svg width="22" height="22" viewBox="0 0 22 22" fill="none" xmlns="http://www.w3.org/2000/svg">
<path d="M16.2341 10.3492C16.1489 10.2632 16.0475 10.1951 15.9358 10.1485C15.8241 10.102 15.7043 10.078 15.5833 10.078C15.4623 10.078 15.3425 10.102 15.2308 10.1485C15.1191 10.1951 15.0177 10.2632 14.9325 10.3492L11.9166 13.3742V6.41667C11.9166 6.17355 11.8201 5.94039 11.6481 5.76849C11.4762 5.59658 11.2431 5.5 11 5.5C10.7569 5.5 10.5237 5.59658 10.3518 5.76849C10.1799 5.94039 10.0833 6.17355 10.0833 6.41667V13.3742L7.06747 10.3492C6.89485 10.1766 6.66074 10.0796 6.41663 10.0796C6.17252 10.0796 5.93841 10.1766 5.7658 10.3492C5.59319 10.5218 5.49622 10.7559 5.49622 11C5.49622 11.2441 5.59319 11.4782 5.7658 11.6508L10.3491 16.2342C10.4363 16.3176 10.5391 16.383 10.6516 16.4267C10.7614 16.4752 10.88 16.5002 11 16.5002C11.1199 16.5002 11.2386 16.4752 11.3483 16.4267C11.4608 16.383 11.5636 16.3176 11.6508 16.2342L16.2341 11.6508C16.3201 11.5656 16.3882 11.4642 16.4348 11.3525C16.4813 11.2408 16.5053 11.121 16.5053 11C16.5053 10.879 16.4813 10.7592 16.4348 10.6475C16.3882 10.5358 16.3201 10.4344 16.2341 10.3492Z" fill="#111827"/>
</svg>
