<svg width="22" height="22" viewBox="0 0 22 22" fill="none" xmlns="http://www.w3.org/2000/svg">
<path d="M8.90078 5.76584C8.81556 5.67992 8.71418 5.61173 8.60247 5.56519C8.49077 5.51865 8.37096 5.49469 8.24994 5.49469C8.12893 5.49469 8.00912 5.51865 7.89742 5.56519C7.78571 5.61173 7.68433 5.67992 7.59911 5.76584L3.01578 10.3492C2.92986 10.4344 2.86166 10.5358 2.81513 10.6475C2.76859 10.7592 2.74463 10.879 2.74463 11C2.74463 11.121 2.76859 11.2408 2.81513 11.3525C2.86166 11.4642 2.92986 11.5656 3.01578 11.6508L7.59911 16.2342C7.68433 16.3201 7.78571 16.3883 7.89742 16.4348C8.00912 16.4814 8.12893 16.5053 8.24994 16.5053C8.37096 16.5053 8.49077 16.4814 8.60247 16.4348C8.71418 16.3883 8.81556 16.3201 8.90078 16.2342C8.9867 16.149 9.05489 16.0476 9.10143 15.9359C9.14797 15.8242 9.17193 15.7043 9.17193 15.5833C9.17193 15.4623 9.14797 15.3425 9.10143 15.2308C9.05489 15.1191 8.9867 15.0177 8.90078 14.9325L4.95911 11L8.90078 7.0675C8.9867 6.98229 9.05489 6.8809 9.10143 6.7692C9.14797 6.6575 9.17193 6.53768 9.17193 6.41667C9.17193 6.29566 9.14797 6.17585 9.10143 6.06414C9.05489 5.95244 8.9867 5.85105 8.90078 5.76584ZM18.9841 10.3492L14.4008 5.76584C14.3153 5.68037 14.2138 5.61257 14.1022 5.56632C13.9905 5.52006 13.8708 5.49625 13.7499 5.49625C13.5058 5.49625 13.2717 5.59323 13.0991 5.76584C13.0136 5.85131 12.9458 5.95277 12.8996 6.06444C12.8533 6.17611 12.8295 6.2958 12.8295 6.41667C12.8295 6.66078 12.9265 6.89489 13.0991 7.0675L17.0408 11L13.0991 14.9325C13.0132 15.0177 12.945 15.1191 12.8985 15.2308C12.8519 15.3425 12.828 15.4623 12.828 15.5833C12.828 15.7043 12.8519 15.8242 12.8985 15.9359C12.945 16.0476 13.0132 16.149 13.0991 16.2342C13.1843 16.3201 13.2857 16.3883 13.3974 16.4348C13.5091 16.4814 13.6289 16.5053 13.7499 16.5053C13.871 16.5053 13.9908 16.4814 14.1025 16.4348C14.2142 16.3883 14.3156 16.3201 14.4008 16.2342L18.9841 11.6508C19.07 11.5656 19.1382 11.4642 19.1848 11.3525C19.2313 11.2408 19.2553 11.121 19.2553 11C19.2553 10.879 19.2313 10.7592 19.1848 10.6475C19.1382 10.5358 19.07 10.4344 18.9841 10.3492Z" fill="#111827"/>
</svg>
