<svg width="22" height="22" viewBox="0 0 22 22" fill="none" xmlns="http://www.w3.org/2000/svg">
<path d="M11 1.83334C9.59386 1.83328 8.20661 2.15669 6.9455 2.77855C5.6844 3.4004 4.58326 4.30404 3.72726 5.41955C2.87126 6.53506 2.28336 7.83254 2.00904 9.21161C1.73471 10.5907 1.78131 12.0144 2.14524 13.3725C2.50917 14.7307 3.18066 15.987 4.10778 17.0441C5.0349 18.1013 6.19278 18.9309 7.49185 19.469C8.79092 20.0071 10.1964 20.239 11.5994 20.147C13.0025 20.055 14.3656 19.6414 15.5833 18.9383C15.6928 18.881 15.7897 18.8022 15.8679 18.7065C15.9462 18.6108 16.0043 18.5002 16.0388 18.3815C16.0732 18.2628 16.0833 18.1383 16.0684 18.0156C16.0535 17.8928 16.0139 17.7744 15.952 17.6674C15.8901 17.5603 15.8073 17.4669 15.7084 17.3927C15.6094 17.3186 15.4966 17.2652 15.3765 17.2358C15.2564 17.2063 15.1316 17.2015 15.0096 17.2216C14.8876 17.2417 14.771 17.2862 14.6666 17.3525C13.2686 18.1596 11.6434 18.4829 10.043 18.2723C8.44252 18.0616 6.95631 17.3288 5.8148 16.1874C4.67329 15.046 3.94028 13.5599 3.72944 11.9595C3.5186 10.359 3.84172 8.73377 4.64869 7.3357C5.45566 5.93763 6.70138 4.84489 8.19266 4.22693C9.68394 3.60898 11.3375 3.50035 12.8968 3.91788C14.4561 4.33542 15.8341 5.25579 16.817 6.53626C17.7999 7.81674 18.3329 9.38576 18.3333 11V11.6875C18.3333 12.113 18.1643 12.521 17.8634 12.8218C17.5626 13.1227 17.1546 13.2917 16.7291 13.2917C16.3037 13.2917 15.8956 13.1227 15.5948 12.8218C15.294 12.521 15.125 12.113 15.125 11.6875V7.79168C15.125 7.54856 15.0284 7.3154 14.8565 7.1435C14.6846 6.97159 14.4514 6.87501 14.2083 6.87501C13.9951 6.87027 13.787 6.93998 13.6197 7.07216C13.4523 7.20433 13.3363 7.3907 13.2916 7.59918C12.6178 7.13312 11.8192 6.88078 11 6.87501C10.3099 6.86676 9.62872 7.03178 9.01892 7.35497C8.40913 7.67816 7.89016 8.14919 7.50957 8.72491C7.12897 9.30062 6.89891 9.96263 6.84045 10.6503C6.78199 11.338 6.897 12.0293 7.17495 12.661C7.4529 13.2927 7.8849 13.8446 8.43139 14.2661C8.97788 14.6876 9.62139 14.9652 10.303 15.0736C10.9846 15.1819 11.6824 15.1175 12.3327 14.8863C12.983 14.6551 13.5648 14.2644 14.025 13.75C14.4605 14.314 15.061 14.7283 15.7429 14.9353C16.4248 15.1422 17.1543 15.1315 17.8299 14.9046C18.5054 14.6778 19.0935 14.246 19.5123 13.6694C19.9311 13.0929 20.1598 12.4001 20.1666 11.6875V11C20.1666 9.79623 19.9295 8.60423 19.4689 7.49208C19.0082 6.37993 18.333 5.3694 17.4818 4.5182C16.6306 3.66699 15.62 2.99178 14.5079 2.53111C13.3957 2.07045 12.2037 1.83334 11 1.83334ZM11 13.2917C10.5467 13.2917 10.1036 13.1573 9.72677 12.9055C9.34991 12.6536 9.05618 12.2957 8.88273 11.877C8.70928 11.4582 8.6639 10.9975 8.75232 10.5529C8.84075 10.1084 9.05901 9.70005 9.3795 9.37956C9.7 9.05906 10.1083 8.8408 10.5529 8.75238C10.9974 8.66395 11.4582 8.70933 11.8769 8.88279C12.2957 9.05624 12.6536 9.34997 12.9054 9.72683C13.1572 10.1037 13.2916 10.5468 13.2916 11C13.2916 11.6078 13.0502 12.1907 12.6204 12.6205C12.1906 13.0502 11.6077 13.2917 11 13.2917Z" fill="#111827"/>
</svg>
