<svg width="22" height="22" viewBox="0 0 22 22" fill="none" xmlns="http://www.w3.org/2000/svg">
<path d="M2.75004 7.33333H15.5834C15.8265 7.33333 16.0596 7.23676 16.2316 7.06485C16.4035 6.89294 16.5 6.65978 16.5 6.41667C16.5 6.17355 16.4035 5.94039 16.2316 5.76849C16.0596 5.59658 15.8265 5.5 15.5834 5.5H2.75004C2.50693 5.5 2.27377 5.59658 2.10186 5.76849C1.92995 5.94039 1.83337 6.17355 1.83337 6.41667C1.83337 6.65978 1.92995 6.89294 2.10186 7.06485C2.27377 7.23676 2.50693 7.33333 2.75004 7.33333ZM19.25 14.6667H8.25004C8.00693 14.6667 7.77377 14.7632 7.60186 14.9352C7.42995 15.1071 7.33337 15.3402 7.33337 15.5833C7.33337 15.8264 7.42995 16.0596 7.60186 16.2315C7.77377 16.4034 8.00693 16.5 8.25004 16.5H19.25C19.4932 16.5 19.7263 16.4034 19.8982 16.2315C20.0701 16.0596 20.1667 15.8264 20.1667 15.5833C20.1667 15.3402 20.0701 15.1071 19.8982 14.9352C19.7263 14.7632 19.4932 14.6667 19.25 14.6667ZM19.25 10.0833H2.75004C2.50693 10.0833 2.27377 10.1799 2.10186 10.3518C1.92995 10.5237 1.83337 10.7569 1.83337 11C1.83337 11.2431 1.92995 11.4763 2.10186 11.6482C2.27377 11.8201 2.50693 11.9167 2.75004 11.9167H19.25C19.4932 11.9167 19.7263 11.8201 19.8982 11.6482C20.0701 11.4763 20.1667 11.2431 20.1667 11C20.1667 10.7569 20.0701 10.5237 19.8982 10.3518C19.7263 10.1799 19.4932 10.0833 19.25 10.0833Z" fill="#111827"/>
</svg>
