<svg width="22" height="22" viewBox="0 0 22 22" fill="none" xmlns="http://www.w3.org/2000/svg">
<path d="M20.5975 17.2517L19.6808 13.7133L16.7933 3.08917C16.7309 2.85482 16.5782 2.65474 16.3686 2.53276C16.159 2.41077 15.9096 2.37682 15.675 2.43834L12.1275 3.35501C12.0428 3.26118 11.9397 3.18588 11.8245 3.13382C11.7094 3.08176 11.5847 3.05408 11.4583 3.05251H2.29167C2.04855 3.05251 1.81539 3.14908 1.64349 3.32099C1.47158 3.4929 1.375 3.72606 1.375 3.96917V18.6358C1.375 18.879 1.47158 19.1121 1.64349 19.284C1.81539 19.4559 2.04855 19.5525 2.29167 19.5525H11.4583C11.7014 19.5525 11.9346 19.4559 12.1065 19.284C12.2784 19.1121 12.375 18.879 12.375 18.6358V11.3025L14.3917 18.8375C14.4454 19.0375 14.5652 19.2134 14.7317 19.3366C14.8981 19.4597 15.1014 19.5229 15.3083 19.5158C15.3875 19.5249 15.4675 19.5249 15.5467 19.5158L19.9742 18.3333C20.0912 18.302 20.2009 18.2479 20.2969 18.1739C20.3929 18.1 20.4732 18.0077 20.5333 17.9025C20.63 17.6997 20.6527 17.4695 20.5975 17.2517ZM5.93083 17.7558H3.18083V15.9225H5.93083V17.7558ZM5.93083 14.0892H3.18083V8.58917H5.93083V14.0892ZM5.93083 6.75584H3.18083V4.92251H5.93083V6.75584ZM10.5142 17.7558H7.76417V15.9225H10.5142V17.7558ZM10.5142 14.0892H7.76417V8.58917H10.5142V14.0892ZM10.5142 6.75584H7.76417V4.92251H10.5142V6.75584ZM12.5767 5.16084L15.235 4.44584L15.7117 6.21501L13.0533 6.93001L12.5767 5.16084ZM14.9508 14.0158L13.53 8.69917L16.1883 7.98417L17.6092 13.3008L14.9508 14.0158ZM15.8675 17.5542L15.3908 15.785L18.0492 15.07L18.5258 16.8392L15.8675 17.5542Z" fill="#111827"/>
</svg>
