<svg width="22" height="22" viewBox="0 0 22 22" fill="none" xmlns="http://www.w3.org/2000/svg">
<path d="M5.49996 5.50001C5.49996 5.01378 5.69311 4.54746 6.03693 4.20365C6.38075 3.85983 6.84706 3.66668 7.33329 3.66668C7.57641 3.66668 7.80957 3.5701 7.98147 3.39819C8.15338 3.22628 8.24996 2.99313 8.24996 2.75001C8.24996 2.5069 8.15338 2.27374 7.98147 2.10183C7.80957 1.92992 7.57641 1.83334 7.33329 1.83334C6.36083 1.83334 5.4282 2.21965 4.74057 2.90729C4.05293 3.59492 3.66663 4.52755 3.66663 5.50001V8.25001C3.66663 8.73624 3.47347 9.20256 3.12966 9.54637C2.78584 9.89019 2.31952 10.0833 1.83329 10.0833C1.59018 10.0833 1.35702 10.1799 1.18511 10.3518C1.0132 10.5237 0.916626 10.7569 0.916626 11C0.916626 11.2431 1.0132 11.4763 1.18511 11.6482C1.35702 11.8201 1.59018 11.9167 1.83329 11.9167C2.31952 11.9167 2.78584 12.1098 3.12966 12.4536C3.47347 12.7975 3.66663 13.2638 3.66663 13.75V16.5C3.66663 17.4725 4.05293 18.4051 4.74057 19.0927C5.4282 19.7804 6.36083 20.1667 7.33329 20.1667C7.57641 20.1667 7.80957 20.0701 7.98147 19.8982C8.15338 19.7263 8.24996 19.4931 8.24996 19.25C8.24996 19.0069 8.15338 18.7737 7.98147 18.6018C7.80957 18.4299 7.57641 18.3333 7.33329 18.3333C6.84706 18.3333 6.38075 18.1402 6.03693 17.7964C5.69311 17.4526 5.49996 16.9862 5.49996 16.5V13.75C5.49701 13.228 5.38264 12.7126 5.16448 12.2384C4.94633 11.7641 4.62942 11.3419 4.23496 11C4.62942 10.6581 4.94633 10.2359 5.16448 9.76164C5.38264 9.28739 5.49701 8.77202 5.49996 8.25001V5.50001ZM20.1666 10.0833C19.6804 10.0833 19.2141 9.89019 18.8703 9.54637C18.5264 9.20256 18.3333 8.73624 18.3333 8.25001V5.50001C18.3333 4.52755 17.947 3.59492 17.2593 2.90729C16.5717 2.21965 15.6391 1.83334 14.6666 1.83334C14.4235 1.83334 14.1904 1.92992 14.0184 2.10183C13.8465 2.27374 13.75 2.5069 13.75 2.75001C13.75 2.99313 13.8465 3.22628 14.0184 3.39819C14.1904 3.5701 14.4235 3.66668 14.6666 3.66668C15.1529 3.66668 15.6192 3.85983 15.963 4.20365C16.3068 4.54746 16.5 5.01378 16.5 5.50001V8.25001C16.5029 8.77202 16.6173 9.28739 16.8354 9.76164C17.0536 10.2359 17.3705 10.6581 17.765 11C17.3705 11.3419 17.0536 11.7641 16.8354 12.2384C16.6173 12.7126 16.5029 13.228 16.5 13.75V16.5C16.5 16.9862 16.3068 17.4526 15.963 17.7964C15.6192 18.1402 15.1529 18.3333 14.6666 18.3333C14.4235 18.3333 14.1904 18.4299 14.0184 18.6018C13.8465 18.7737 13.75 19.0069 13.75 19.25C13.75 19.4931 13.8465 19.7263 14.0184 19.8982C14.1904 20.0701 14.4235 20.1667 14.6666 20.1667C15.6391 20.1667 16.5717 19.7804 17.2593 19.0927C17.947 18.4051 18.3333 17.4725 18.3333 16.5V13.75C18.3333 13.2638 18.5264 12.7975 18.8703 12.4536C19.2141 12.1098 19.6804 11.9167 20.1666 11.9167C20.4097 11.9167 20.6429 11.8201 20.8148 11.6482C20.9867 11.4763 21.0833 11.2431 21.0833 11C21.0833 10.7569 20.9867 10.5237 20.8148 10.3518C20.6429 10.1799 20.4097 10.0833 20.1666 10.0833Z" fill="#111827"/>
</svg>
