<svg width="22" height="22" viewBox="0 0 22 22" fill="none" xmlns="http://www.w3.org/2000/svg">
<path d="M11 16.5C10.8187 16.5 10.6415 16.5538 10.4908 16.6545C10.34 16.7552 10.2225 16.8984 10.1532 17.0659C10.0838 17.2334 10.0656 17.4177 10.101 17.5955C10.1364 17.7733 10.2237 17.9366 10.3519 18.0648C10.4801 18.193 10.6434 18.2803 10.8212 18.3157C10.999 18.3511 11.1833 18.3329 11.3508 18.2635C11.5183 18.1942 11.6615 18.0767 11.7622 17.9259C11.8629 17.7752 11.9167 17.598 11.9167 17.4167C11.9167 17.1735 11.8201 16.9404 11.6482 16.7685C11.4763 16.5966 11.2432 16.5 11 16.5ZM16.5 0.916656H5.50004C5.25693 0.916656 5.02377 1.01323 4.85186 1.18514C4.67995 1.35705 4.58337 1.59021 4.58337 1.83332V10.0833C4.58337 10.8127 4.87311 11.5121 5.38883 12.0279C5.90456 12.5436 6.60403 12.8333 7.33337 12.8333H8.25004V15.0058C7.7833 15.5351 7.47919 16.1877 7.37419 16.8855C7.2692 17.5833 7.36778 18.2966 7.6581 18.9397C7.94843 19.5828 8.41817 20.1286 9.01096 20.5114C9.60375 20.8941 10.2944 21.0978 11 21.0978C11.7057 21.0978 12.3963 20.8941 12.9891 20.5114C13.5819 20.1286 14.0517 19.5828 14.342 18.9397C14.6323 18.2966 14.7309 17.5833 14.6259 16.8855C14.5209 16.1877 14.2168 15.5351 13.75 15.0058V12.8333H14.6667C15.3961 12.8333 16.0955 12.5436 16.6113 12.0279C17.127 11.5121 17.4167 10.8127 17.4167 10.0833V1.83332C17.4167 1.59021 17.3201 1.35705 17.1482 1.18514C16.9763 1.01323 16.7432 0.916656 16.5 0.916656ZM11 19.25C10.6312 19.2472 10.2717 19.1332 9.9687 18.9229C9.66565 18.7126 9.43309 18.4158 9.3014 18.0712C9.16972 17.7266 9.14503 17.3504 9.23057 16.9916C9.31611 16.6327 9.5079 16.3081 9.78087 16.06C9.87583 15.9743 9.95181 15.8697 10.0039 15.7528C10.056 15.636 10.0831 15.5096 10.0834 15.3817V12.8333H11.9167V15.3817C11.917 15.5096 11.9441 15.636 11.9962 15.7528C12.0483 15.8697 12.1242 15.9743 12.2192 16.06C12.4922 16.3081 12.684 16.6327 12.7695 16.9916C12.8551 17.3504 12.8304 17.7266 12.6987 18.0712C12.567 18.4158 12.3344 18.7126 12.0314 18.9229C11.7283 19.1332 11.3689 19.2472 11 19.25ZM15.5834 10.0833C15.5834 10.3264 15.4868 10.5596 15.3149 10.7315C15.143 10.9034 14.9098 11 14.6667 11H7.33337C7.09026 11 6.8571 10.9034 6.68519 10.7315C6.51328 10.5596 6.41671 10.3264 6.41671 10.0833V9.16666H15.5834V10.0833ZM15.5834 7.33332H6.41671V2.74999H15.5834V7.33332Z" fill="#111827"/>
</svg>
