<svg width="22" height="22" viewBox="0 0 22 22" fill="none" xmlns="http://www.w3.org/2000/svg">
<path d="M13.4934 8.05751L9.56088 11.9992L8.04838 10.4867C7.9662 10.3907 7.86508 10.3128 7.75135 10.2578C7.63762 10.2027 7.51375 10.1718 7.38751 10.1669C7.26127 10.1621 7.13538 10.1833 7.01775 10.2294C6.90012 10.2755 6.79328 10.3454 6.70395 10.4347C6.61461 10.5241 6.54471 10.6309 6.49863 10.7485C6.45254 10.8662 6.43127 10.9921 6.43615 11.1183C6.44102 11.2446 6.47194 11.3684 6.52696 11.4821C6.58198 11.5959 6.65992 11.697 6.75588 11.7792L8.91005 13.9425C8.9957 14.0275 9.09728 14.0947 9.20896 14.1403C9.32065 14.1859 9.44024 14.209 9.56088 14.2083C9.80136 14.2073 10.0318 14.1119 10.2025 13.9425L14.7859 9.35918C14.8718 9.27396 14.94 9.17258 14.9865 9.06087C15.0331 8.94917 15.057 8.82935 15.057 8.70834C15.057 8.58733 15.0331 8.46752 14.9865 8.35581C14.94 8.24411 14.8718 8.14273 14.7859 8.05751C14.6141 7.88678 14.3818 7.79095 14.1396 7.79095C13.8975 7.79095 13.6651 7.88678 13.4934 8.05751ZM11 1.83334C9.18705 1.83334 7.41477 2.37096 5.90732 3.37821C4.39987 4.38545 3.22495 5.81709 2.53115 7.49208C1.83735 9.16707 1.65582 11.0102 2.00951 12.7883C2.36321 14.5665 3.23625 16.1998 4.51823 17.4818C5.80021 18.7638 7.43356 19.6368 9.21172 19.9905C10.9899 20.3442 12.833 20.1627 14.508 19.4689C16.183 18.7751 17.6146 17.6002 18.6218 16.0927C19.6291 14.5853 20.1667 12.813 20.1667 11C20.1667 9.79623 19.9296 8.60423 19.4689 7.49208C19.0083 6.37993 18.3331 5.3694 17.4819 4.5182C16.6307 3.66699 15.6201 2.99178 14.508 2.53111C13.3958 2.07045 12.2038 1.83334 11 1.83334ZM11 18.3333C9.54965 18.3333 8.13182 17.9032 6.92586 17.0975C5.7199 16.2917 4.77997 15.1463 4.22493 13.8064C3.66989 12.4664 3.52466 10.9919 3.80762 9.56935C4.09058 8.14682 4.78901 6.84015 5.81459 5.81456C6.84018 4.78898 8.14686 4.09054 9.56938 3.80758C10.9919 3.52463 12.4664 3.66985 13.8064 4.22489C15.1464 4.77994 16.2917 5.71987 17.0975 6.92583C17.9033 8.13179 18.3334 9.54961 18.3334 11C18.3334 12.9449 17.5608 14.8102 16.1855 16.1855C14.8102 17.5607 12.945 18.3333 11 18.3333Z" fill="#111827"/>
</svg>
