<svg width="22" height="22" viewBox="0 0 22 22" fill="none" xmlns="http://www.w3.org/2000/svg">
<path d="M17.3433 14.7858C17.2386 14.7252 17.1231 14.6859 17.0032 14.6701C16.8833 14.6544 16.7615 14.6625 16.6448 14.694C16.528 14.7256 16.4187 14.7799 16.3231 14.8538C16.2274 14.9278 16.1473 15.0199 16.0874 15.125C15.5252 16.0988 14.7169 16.9078 13.7436 17.4709C12.7703 18.0339 11.6661 18.3314 10.5416 18.3333H5.41744L6.00411 17.7558C6.17484 17.5841 6.27067 17.3517 6.27067 17.1096C6.27067 16.8674 6.17484 16.6351 6.00411 16.4633C5.15108 15.6151 4.55367 14.5442 4.28005 13.3728C4.00642 12.2013 4.0676 10.9766 4.4566 9.83826C4.8456 8.69994 5.54675 7.69389 6.48005 6.93491C7.41336 6.17593 8.54122 5.69459 9.73494 5.54581C9.85532 5.53137 9.97167 5.49335 10.0774 5.43394C10.183 5.37453 10.276 5.29488 10.3509 5.19955C10.4258 5.10421 10.4812 4.99506 10.5139 4.87831C10.5466 4.76157 10.5561 4.63952 10.5416 4.51915C10.5272 4.39877 10.4891 4.28241 10.4297 4.17673C10.3703 4.07104 10.2907 3.97809 10.1953 3.90318C10.1 3.82828 9.99085 3.77288 9.87411 3.74016C9.75736 3.70744 9.63532 3.69803 9.51494 3.71248C8.05668 3.8929 6.67308 4.45952 5.50714 5.35376C4.34121 6.24799 3.43526 7.4374 2.88295 8.79902C2.33064 10.1606 2.15201 11.6451 2.36552 13.0988C2.57903 14.5526 3.17694 15.923 4.09744 17.0683L2.55744 18.5991C2.43025 18.7281 2.34408 18.8917 2.30982 19.0696C2.27556 19.2474 2.29474 19.4314 2.36494 19.5983C2.43371 19.7657 2.55049 19.909 2.70057 20.0102C2.85064 20.1113 3.0273 20.1657 3.20827 20.1666H10.5416C11.9891 20.166 13.411 19.7844 14.6644 19.0604C15.9178 18.3363 16.9587 17.2952 17.6824 16.0416C17.743 15.937 17.7824 15.8214 17.7981 15.7016C17.8139 15.5817 17.8057 15.4599 17.7742 15.3431C17.7427 15.2264 17.6884 15.1171 17.6144 15.0214C17.5405 14.9258 17.4483 14.8457 17.3433 14.7858ZM17.8749 5.66498V4.58331C17.8749 3.85397 17.5852 3.15449 17.0695 2.63877C16.5538 2.12304 15.8543 1.83331 15.1249 1.83331C14.3956 1.83331 13.6961 2.12304 13.1804 2.63877C12.6647 3.15449 12.3749 3.85397 12.3749 4.58331V5.66498C11.84 5.8541 11.3767 6.20404 11.0485 6.66684C10.7202 7.12963 10.5432 7.68261 10.5416 8.24998V10.0833C10.5416 10.8127 10.8313 11.5121 11.3471 12.0279C11.8628 12.5436 12.5623 12.8333 13.2916 12.8333H16.9583C17.6876 12.8333 18.3871 12.5436 18.9028 12.0279C19.4185 11.5121 19.7083 10.8127 19.7083 10.0833V8.24998C19.7067 7.68261 19.5296 7.12963 19.2014 6.66684C18.8732 6.20404 18.4099 5.8541 17.8749 5.66498ZM14.2083 4.58331C14.2083 4.3402 14.3048 4.10704 14.4768 3.93513C14.6487 3.76322 14.8818 3.66665 15.1249 3.66665C15.3681 3.66665 15.6012 3.76322 15.7731 3.93513C15.945 4.10704 16.0416 4.3402 16.0416 4.58331V5.49998H14.2083V4.58331ZM17.8749 10.0833C17.8749 10.3264 17.7784 10.5596 17.6065 10.7315C17.4345 10.9034 17.2014 11 16.9583 11H13.2916C13.0485 11 12.8153 10.9034 12.6434 10.7315C12.4715 10.5596 12.3749 10.3264 12.3749 10.0833V8.24998C12.3749 8.00686 12.4715 7.77371 12.6434 7.6018C12.8153 7.42989 13.0485 7.33331 13.2916 7.33331H16.9583C17.2014 7.33331 17.4345 7.42989 17.6065 7.6018C17.7784 7.77371 17.8749 8.00686 17.8749 8.24998V10.0833Z" fill="#111827"/>
</svg>
