<svg width="22" height="22" viewBox="0 0 22 22" fill="none" xmlns="http://www.w3.org/2000/svg">
<path d="M15.5833 8.24999H6.41667C6.17355 8.24999 5.94039 8.34657 5.76848 8.51848C5.59658 8.69039 5.5 8.92355 5.5 9.16666C5.5 9.40978 5.59658 9.64293 5.76848 9.81484C5.94039 9.98675 6.17355 10.0833 6.41667 10.0833H15.5833C15.8264 10.0833 16.0596 9.98675 16.2315 9.81484C16.4034 9.64293 16.5 9.40978 16.5 9.16666C16.5 8.92355 16.4034 8.69039 16.2315 8.51848C16.0596 8.34657 15.8264 8.24999 15.5833 8.24999ZM11.9167 11.9167H6.41667C6.17355 11.9167 5.94039 12.0132 5.76848 12.1851C5.59658 12.3571 5.5 12.5902 5.5 12.8333C5.5 13.0764 5.59658 13.3096 5.76848 13.4815C5.94039 13.6534 6.17355 13.75 6.41667 13.75H11.9167C12.1598 13.75 12.3929 13.6534 12.5648 13.4815C12.7368 13.3096 12.8333 13.0764 12.8333 12.8333C12.8333 12.5902 12.7368 12.3571 12.5648 12.1851C12.3929 12.0132 12.1598 11.9167 11.9167 11.9167ZM11 1.83333C9.79622 1.83333 8.60422 2.07043 7.49207 2.5311C6.37992 2.99177 5.36939 3.66698 4.51819 4.51818C2.7991 6.23727 1.83333 8.56884 1.83333 11C1.82532 13.1167 2.55823 15.1695 3.905 16.8025L2.07167 18.6358C1.94447 18.7647 1.85831 18.9284 1.82405 19.1062C1.78979 19.2841 1.80897 19.4681 1.87917 19.635C1.9553 19.7999 2.07873 19.9385 2.23378 20.0332C2.38882 20.1278 2.5685 20.1743 2.75 20.1667H11C13.4312 20.1667 15.7627 19.2009 17.4818 17.4818C19.2009 15.7627 20.1667 13.4311 20.1667 11C20.1667 8.56884 19.2009 6.23727 17.4818 4.51818C15.7627 2.7991 13.4312 1.83333 11 1.83333ZM11 18.3333H4.95917L5.81167 17.4808C5.9824 17.3091 6.07823 17.0767 6.07823 16.8346C6.07823 16.5924 5.9824 16.3601 5.81167 16.1883C4.61137 14.9894 3.86391 13.4113 3.69663 11.7231C3.52936 10.0348 3.95261 8.34075 4.89429 6.92956C5.83597 5.51836 7.23781 4.47732 8.86097 3.9838C10.4841 3.49028 12.2282 3.57482 13.796 4.223C15.3639 4.87118 16.6584 6.04291 17.4592 7.53856C18.26 9.03421 18.5175 10.7612 18.1877 12.4254C17.8579 14.0896 16.9614 15.588 15.6507 16.6652C14.3401 17.7425 12.6965 18.332 11 18.3333Z" fill="#111827"/>
</svg>
