<svg width="22" height="22" viewBox="0 0 22 22" fill="none" xmlns="http://www.w3.org/2000/svg">
<path d="M11 7.65415C10.4762 7.38561 9.88147 7.28805 9.29937 7.3752C8.71727 7.46235 8.17714 7.72982 7.755 8.13998C7.24001 8.65561 6.95075 9.35456 6.95075 10.0833C6.95075 10.8121 7.24001 11.511 7.755 12.0266L10.3492 14.6666C10.4344 14.7526 10.5358 14.8208 10.6475 14.8673C10.7592 14.9138 10.879 14.9378 11 14.9378C11.121 14.9378 11.2408 14.9138 11.3525 14.8673C11.4642 14.8208 11.5656 14.7526 11.6508 14.6666L14.245 12.0725C14.76 11.5569 15.0492 10.8579 15.0492 10.1291C15.0492 9.40039 14.76 8.70144 14.245 8.18581C13.8281 7.76817 13.2905 7.49213 12.7082 7.39672C12.1259 7.30132 11.5283 7.39137 11 7.65415ZM12.9433 10.7341L11 12.6775L9.05667 10.7341C8.97075 10.6489 8.90255 10.5475 8.85602 10.4358C8.80948 10.3241 8.78552 10.2043 8.78552 10.0833C8.78552 9.9623 8.80948 9.84249 8.85602 9.73078C8.90255 9.61908 8.97075 9.51769 9.05667 9.43248C9.22841 9.26175 9.46075 9.16592 9.70292 9.16592C9.94509 9.16592 10.1774 9.26175 10.3492 9.43248C10.4344 9.5184 10.5358 9.58659 10.6475 9.63313C10.7592 9.67967 10.879 9.70363 11 9.70363C11.121 9.70363 11.2408 9.67967 11.3525 9.63313C11.4642 9.58659 11.5656 9.5184 11.6508 9.43248C11.8226 9.26175 12.0549 9.16592 12.2971 9.16592C12.5393 9.16592 12.7716 9.26175 12.9433 9.43248C13.0293 9.51769 13.0974 9.61908 13.144 9.73078C13.1905 9.84249 13.2145 9.9623 13.2145 10.0833C13.2145 10.2043 13.1905 10.3241 13.144 10.4358C13.0974 10.5475 13.0293 10.6489 12.9433 10.7341ZM11 1.83331C9.79622 1.83331 8.60422 2.07042 7.49207 2.53108C6.37992 2.99175 5.36939 3.66696 4.51819 4.51817C2.7991 6.23725 1.83333 8.56883 1.83333 11C1.82532 13.1167 2.55823 15.1695 3.905 16.8025L2.07167 18.6358C1.94447 18.7647 1.85831 18.9284 1.82405 19.1062C1.78979 19.2841 1.80897 19.468 1.87917 19.635C1.9553 19.7999 2.07873 19.9385 2.23378 20.0332C2.38882 20.1278 2.5685 20.1743 2.75 20.1666H11C13.4312 20.1666 15.7627 19.2009 17.4818 17.4818C19.2009 15.7627 20.1667 13.4311 20.1667 11C20.1667 8.56883 19.2009 6.23725 17.4818 4.51817C15.7627 2.79908 13.4312 1.83331 11 1.83331ZM11 18.3333H4.95917L5.81167 17.4808C5.9824 17.3091 6.07823 17.0767 6.07823 16.8346C6.07823 16.5924 5.9824 16.3601 5.81167 16.1883C4.61137 14.9893 3.86391 13.4113 3.69663 11.723C3.52936 10.0348 3.95261 8.34073 4.89429 6.92954C5.83597 5.51835 7.23781 4.47731 8.86097 3.98379C10.4841 3.49027 12.2282 3.5748 13.796 4.22298C15.3639 4.87117 16.6584 6.0429 17.4592 7.53855C18.26 9.03419 18.5175 10.7612 18.1877 12.4254C17.8579 14.0896 16.9614 15.5879 15.6507 16.6652C14.3401 17.7425 12.6965 18.332 11 18.3333Z" fill="#111827"/>
</svg>
