<svg width="22" height="22" viewBox="0 0 22 22" fill="none" xmlns="http://www.w3.org/2000/svg">
<path d="M6.41671 13.75H9.16671C9.40982 13.75 9.64298 13.6534 9.81489 13.4815C9.9868 13.3096 10.0834 13.0764 10.0834 12.8333C10.0834 12.5902 9.9868 12.357 9.81489 12.1851C9.64298 12.0132 9.40982 11.9166 9.16671 11.9166H6.41671C6.17359 11.9166 5.94043 12.0132 5.76853 12.1851C5.59662 12.357 5.50004 12.5902 5.50004 12.8333C5.50004 13.0764 5.59662 13.3096 5.76853 13.4815C5.94043 13.6534 6.17359 13.75 6.41671 13.75ZM17.4167 4.58331H4.58337C3.85403 4.58331 3.15456 4.87304 2.63883 5.38877C2.12311 5.90449 1.83337 6.60397 1.83337 7.33331V15.5833C1.83337 16.3127 2.12311 17.0121 2.63883 17.5279C3.15456 18.0436 3.85403 18.3333 4.58337 18.3333H17.4167C18.1461 18.3333 18.8455 18.0436 19.3613 17.5279C19.877 17.0121 20.1667 16.3127 20.1667 15.5833V7.33331C20.1667 6.60397 19.877 5.90449 19.3613 5.38877C18.8455 4.87304 18.1461 4.58331 17.4167 4.58331ZM18.3334 15.5833C18.3334 15.8264 18.2368 16.0596 18.0649 16.2315C17.893 16.4034 17.6598 16.5 17.4167 16.5H4.58337C4.34026 16.5 4.1071 16.4034 3.93519 16.2315C3.76328 16.0596 3.66671 15.8264 3.66671 15.5833V10.0833H18.3334V15.5833ZM18.3334 8.24998H3.66671V7.33331C3.66671 7.0902 3.76328 6.85704 3.93519 6.68513C4.1071 6.51322 4.34026 6.41665 4.58337 6.41665H17.4167C17.6598 6.41665 17.893 6.51322 18.0649 6.68513C18.2368 6.85704 18.3334 7.0902 18.3334 7.33331V8.24998Z" fill="#111827"/>
</svg>
