<svg width="22" height="22" viewBox="0 0 22 22" fill="none" xmlns="http://www.w3.org/2000/svg">
<path d="M9.29346 9.74401H9.29334C9.03737 9.74402 8.7919 9.84572 8.61091 10.0267C8.42992 10.2077 8.32825 10.4532 8.32826 10.7092C8.32827 10.9651 8.42995 11.2106 8.61095 11.3916C8.79195 11.5726 9.03743 11.6743 9.2934 11.6743C9.54936 11.6743 9.79485 11.5726 9.97584 11.3916C10.1568 11.2106 10.2585 10.9651 10.2585 10.7092C10.2585 10.4532 10.1569 10.2077 9.97589 10.0267C9.7949 9.84572 9.54942 9.74402 9.29346 9.74401ZM12.7349 9.74401C12.5241 9.72615 12.3129 9.77234 12.1288 9.87654C11.9447 9.98074 11.7964 10.1381 11.7032 10.328C11.61 10.5179 11.5764 10.7315 11.6066 10.9408C11.6369 11.1502 11.7297 11.3455 11.8728 11.5013C12.0159 11.657 12.2027 11.7659 12.4088 11.8137C12.6148 11.8616 12.8305 11.846 13.0276 11.7692C13.2247 11.6924 13.394 11.5579 13.5133 11.3833C13.6327 11.2087 13.6965 11.0021 13.6965 10.7905C13.7022 10.6587 13.6817 10.527 13.6364 10.403C13.5912 10.279 13.5219 10.1652 13.4326 10.068C13.3433 9.97079 13.2357 9.89215 13.116 9.83657C12.9962 9.78098 12.8667 9.74952 12.7349 9.74401ZM17.3171 1.83345H4.68293C4.42847 1.83405 4.17663 1.88477 3.94177 1.98271C3.70692 2.08065 3.49366 2.22389 3.31417 2.40425C3.13468 2.58461 2.99247 2.79856 2.89567 3.03389C2.79887 3.26921 2.74937 3.5213 2.75001 3.77576V16.5232C2.74939 16.7776 2.79889 17.0297 2.89569 17.265C2.9925 17.5003 3.1347 17.7143 3.31419 17.8946C3.49368 18.075 3.70694 18.2182 3.94179 18.3162C4.17664 18.4141 4.42848 18.4648 4.68293 18.4654H15.3749L14.8751 16.7211L16.082 17.8431L17.2229 18.8991L19.25 20.6906V3.77576C19.2506 3.5213 19.2011 3.26921 19.1043 3.03389C19.0075 2.79856 18.8653 2.58461 18.6858 2.40425C18.5064 2.22389 18.2931 2.08065 18.0582 1.98271C17.8234 1.88477 17.5715 1.83405 17.3171 1.83345ZM13.6777 14.1471V14.1472C13.6777 14.1472 13.3382 13.7417 13.0553 13.3834C13.7388 13.2225 14.3433 12.8251 14.762 12.2614C14.4228 12.4873 14.059 12.6739 13.6777 12.8177C13.2391 13.0049 12.7803 13.141 12.3106 13.2231C11.5031 13.3718 10.6749 13.3686 9.86861 13.2137C9.39521 13.1211 8.93125 12.9854 8.48253 12.8083C8.24603 12.7174 8.01606 12.6102 7.79425 12.4877C7.76593 12.4688 7.73774 12.4594 7.70943 12.4406C7.69524 12.4335 7.68246 12.424 7.67172 12.4123C7.50208 12.3181 7.40764 12.252 7.40764 12.252C7.81119 12.8038 8.39482 13.1974 9.05768 13.3646C8.77492 13.7229 8.42602 14.1471 8.42602 14.1471C7.86595 14.1622 7.31076 14.0394 6.80931 13.7895C6.30786 13.5396 5.87552 13.1703 5.55036 12.714C5.58097 10.8026 6.04519 8.92303 6.90801 7.21713C7.66733 6.62078 8.59307 6.27486 9.55741 6.22713L9.65163 6.34032C8.74437 6.56482 7.89775 6.98652 7.17201 7.57543C7.17201 7.57543 7.37947 7.46231 7.72826 7.30201C8.40603 6.99261 9.12839 6.79216 9.86867 6.70806C9.92146 6.69707 9.97512 6.69074 10.029 6.68914C10.6608 6.60684 11.3002 6.60053 11.9335 6.67034C12.9295 6.78406 13.8936 7.09153 14.7715 7.57543C14.0826 7.01463 13.2824 6.60649 12.4239 6.37801L12.5559 6.22723C13.5202 6.27491 14.446 6.62083 15.2053 7.21723C16.0682 8.92308 16.5324 10.8026 16.563 12.714C16.2352 13.1699 15.801 13.5387 15.2981 13.7885C14.7953 14.0382 14.239 14.1614 13.6777 14.1471Z" fill="#111827"/>
</svg>
