<svg width="22" height="22" viewBox="0 0 22 22" fill="none" xmlns="http://www.w3.org/2000/svg">
<path d="M12.8333 10.0833H11.9167V6.41665H13.75C13.9931 6.41665 14.2263 6.51322 14.3982 6.68513C14.5701 6.85704 14.6667 7.0902 14.6667 7.33331C14.6667 7.57643 14.7632 7.80959 14.9352 7.98149C15.1071 8.1534 15.3402 8.24998 15.5833 8.24998C15.8264 8.24998 16.0596 8.1534 16.2315 7.98149C16.4034 7.80959 16.5 7.57643 16.5 7.33331C16.5 6.60397 16.2103 5.90449 15.6945 5.38877C15.1788 4.87304 14.4793 4.58331 13.75 4.58331H11.9167V2.74998C11.9167 2.50686 11.8201 2.27371 11.6482 2.1018C11.4763 1.92989 11.2431 1.83331 11 1.83331C10.7569 1.83331 10.5237 1.92989 10.3518 2.1018C10.1799 2.27371 10.0833 2.50686 10.0833 2.74998V4.58331H9.16667C8.19421 4.58331 7.26157 4.96962 6.57394 5.65725C5.88631 6.34489 5.5 7.27752 5.5 8.24998C5.5 9.22244 5.88631 10.1551 6.57394 10.8427C7.26157 11.5303 8.19421 11.9166 9.16667 11.9166H10.0833V15.5833H8.25C8.00688 15.5833 7.77373 15.4867 7.60182 15.3148C7.42991 15.1429 7.33333 14.9098 7.33333 14.6666C7.33333 14.4235 7.23676 14.1904 7.06485 14.0185C6.89294 13.8466 6.65978 13.75 6.41667 13.75C6.17355 13.75 5.94039 13.8466 5.76849 14.0185C5.59658 14.1904 5.5 14.4235 5.5 14.6666C5.5 15.396 5.78973 16.0955 6.30546 16.6112C6.82118 17.1269 7.52065 17.4166 8.25 17.4166H10.0833V19.25C10.0833 19.4931 10.1799 19.7263 10.3518 19.8982C10.5237 20.0701 10.7569 20.1666 11 20.1666C11.2431 20.1666 11.4763 20.0701 11.6482 19.8982C11.8201 19.7263 11.9167 19.4931 11.9167 19.25V17.4166H12.8333C13.8058 17.4166 14.7384 17.0303 15.4261 16.3427C16.1137 15.6551 16.5 14.7224 16.5 13.75C16.5 12.7775 16.1137 11.8449 15.4261 11.1573C14.7384 10.4696 13.8058 10.0833 12.8333 10.0833ZM10.0833 10.0833H9.16667C8.68044 10.0833 8.21412 9.89016 7.8703 9.54634C7.52649 9.20252 7.33333 8.73621 7.33333 8.24998C7.33333 7.76375 7.52649 7.29743 7.8703 6.95362C8.21412 6.6098 8.68044 6.41665 9.16667 6.41665H10.0833V10.0833ZM12.8333 15.5833H11.9167V11.9166H12.8333C13.3196 11.9166 13.7859 12.1098 14.1297 12.4536C14.4735 12.7974 14.6667 13.2637 14.6667 13.75C14.6667 14.2362 14.4735 14.7025 14.1297 15.0463C13.7859 15.3902 13.3196 15.5833 12.8333 15.5833Z" fill="#111827"/>
</svg>
