<svg width="22" height="22" viewBox="0 0 22 22" fill="none" xmlns="http://www.w3.org/2000/svg">
<path d="M4.39087 9.625H2.55754C2.31442 9.625 2.08126 9.72157 1.90935 9.89348C1.73745 10.0654 1.64087 10.2985 1.64087 10.5417C1.64087 10.7848 1.73745 11.0179 1.90935 11.1898C2.08126 11.3618 2.31442 11.4583 2.55754 11.4583H4.39087C4.63398 11.4583 4.86714 11.3618 5.03905 11.1898C5.21096 11.0179 5.30754 10.7848 5.30754 10.5417C5.30754 10.2985 5.21096 10.0654 5.03905 9.89348C4.86714 9.72157 4.63398 9.625 4.39087 9.625ZM19.7725 7.02166V6.96666C19.5099 6.64564 19.178 6.38818 18.8018 6.21356C18.4256 6.03894 18.0148 5.95169 17.6 5.95833H10.3309C9.65731 5.95228 9.00495 6.19365 8.49754 6.63666C8.02362 7.05424 7.71204 7.62547 7.61754 8.25L6.81087 12.8333C6.7415 13.2291 6.75972 13.6353 6.86425 14.0234C6.96877 14.4114 7.15706 14.7718 7.41587 15.0792C7.67332 15.3855 7.99455 15.632 8.35711 15.8015C8.71968 15.9709 9.11485 16.0591 9.51504 16.06H16.7934C17.4472 16.0699 18.0831 15.8465 18.5871 15.4299C19.0911 15.0132 19.4301 14.4307 19.5434 13.7867L20.35 9.20333C20.4136 8.81952 20.3949 8.4266 20.2954 8.05053C20.1958 7.67445 20.0176 7.32377 19.7725 7.02166ZM17.2609 7.79166L14.1442 10.3217C13.9599 10.4702 13.7254 10.5417 13.4896 10.5212C13.2538 10.5007 13.0351 10.3898 12.8792 10.2117L10.7434 7.79166H17.2609ZM17.7009 13.4475C17.6638 13.6627 17.551 13.8576 17.383 13.9971C17.2149 14.1366 17.0026 14.2115 16.7842 14.2083H9.51504C9.38192 14.2072 9.25064 14.1771 9.13033 14.1201C9.01002 14.0631 8.90356 13.9806 8.81837 13.8783C8.73296 13.7766 8.67069 13.6575 8.63586 13.5293C8.60104 13.4011 8.5945 13.2668 8.6167 13.1358L9.35004 8.98333L11.5042 11.4217C11.9731 11.9546 12.6299 12.2856 13.3372 12.3454C14.0445 12.4052 14.7475 12.1891 15.2992 11.7425L18.4525 9.16666L17.7009 13.4475ZM5.30754 5.95833H2.55754C2.31442 5.95833 2.08126 6.05491 1.90935 6.22682C1.73745 6.39872 1.64087 6.63188 1.64087 6.875C1.64087 7.11811 1.73745 7.35127 1.90935 7.52318C2.08126 7.69509 2.31442 7.79166 2.55754 7.79166H5.30754C5.55065 7.79166 5.78381 7.69509 5.95572 7.52318C6.12763 7.35127 6.2242 7.11811 6.2242 6.875C6.2242 6.63188 6.12763 6.39872 5.95572 6.22682C5.78381 6.05491 5.55065 5.95833 5.30754 5.95833Z" fill="#111827"/>
</svg>
