<svg width="22" height="22" viewBox="0 0 22 22" fill="none" xmlns="http://www.w3.org/2000/svg">
<path d="M9.23117 18.7943C9.23115 18.6599 9.20156 18.5271 9.1445 18.4054C9.08745 18.2837 9.00431 18.176 8.901 18.09C8.79768 18.0039 8.67671 17.9417 8.54666 17.9076C8.41661 17.8736 8.28066 17.8685 8.14845 17.8929C6.94846 18.1131 5.43336 18.1462 5.03053 17.0147C4.67927 16.1384 4.09743 15.3734 3.34669 14.801C3.29313 14.7718 3.24208 14.7383 3.19407 14.7007C3.12836 14.5274 3.01166 14.3781 2.85936 14.2724C2.70705 14.1668 2.5263 14.1098 2.34095 14.109H2.33648C2.09411 14.1089 1.86158 14.2048 1.68978 14.3758C1.51798 14.5468 1.42091 14.7788 1.41981 15.0212C1.41623 15.7687 2.16323 16.2476 2.46628 16.4096C2.82364 16.7687 3.11084 17.1913 3.31312 17.6557C3.64703 18.5938 4.6174 20.0172 7.40679 19.8337C7.40771 19.8659 7.40858 19.8964 7.40903 19.9241L7.41305 20.1694C7.41305 20.4125 7.50963 20.6457 7.68154 20.8176C7.85345 20.9895 8.0866 21.0861 8.32972 21.0861C8.57283 21.0861 8.80599 20.9895 8.9779 20.8176C9.14981 20.6457 9.24639 20.4125 9.24639 20.1694L9.24191 19.8776C9.23744 19.7038 9.23117 19.4523 9.23117 18.7943ZM19.0093 4.92883C19.0383 4.81425 19.067 4.68714 19.0921 4.54391C19.2403 3.52236 19.1111 2.47975 18.7179 1.52532C18.6683 1.4009 18.592 1.28883 18.4945 1.19698C18.397 1.10512 18.2806 1.03571 18.1535 0.993594C17.8271 0.883484 16.6223 0.666848 14.3181 2.13943C12.4027 1.6887 10.4089 1.6887 8.49356 2.13943C6.19874 0.688417 5.00009 0.885317 4.67693 0.989157C4.54664 1.02956 4.42704 1.09861 4.3269 1.19124C4.22676 1.28387 4.14861 1.39774 4.09819 1.52449C3.69697 2.49724 3.56913 3.56112 3.72848 4.60123C3.75087 4.7185 3.77503 4.82682 3.8001 4.92618C3.04071 5.93766 2.63622 7.17143 2.64935 8.43618C2.64687 8.71837 2.65987 9.00047 2.68829 9.28123C2.99445 13.5002 5.74445 14.7669 7.66057 15.202C7.62074 15.3166 7.58449 15.4392 7.55226 15.569C7.49482 15.8049 7.53326 16.0539 7.65914 16.2614C7.78502 16.469 7.98808 16.6181 8.22378 16.6762C8.45948 16.7343 8.70859 16.6965 8.91648 16.5712C9.12437 16.4458 9.27408 16.2432 9.33277 16.0076C9.3911 15.7022 9.5406 15.4216 9.76157 15.2029C9.89518 15.0859 9.99192 14.9326 10.04 14.7617C10.0881 14.5907 10.0855 14.4095 10.0325 14.24C9.97945 14.0705 9.87833 13.9201 9.74139 13.8071C9.60446 13.694 9.43761 13.6232 9.26116 13.6032C6.0949 13.2415 4.72034 11.9516 4.51356 9.11295C4.49066 8.88812 4.48035 8.66218 4.48268 8.43619C4.46797 7.53479 4.76577 6.6561 5.32549 5.94938C5.38173 5.8757 5.44163 5.80489 5.50497 5.73722C5.6172 5.61163 5.69266 5.45756 5.72306 5.2919C5.75346 5.12625 5.73763 4.95542 5.67731 4.79817C5.61547 4.63274 5.56785 4.46234 5.53498 4.28881C5.4603 3.79538 5.48479 3.29202 5.60703 2.80817C6.40373 3.03319 7.15355 3.39946 7.82078 3.88955C7.93112 3.96304 8.05597 4.01195 8.18687 4.03295C8.31777 4.05396 8.45165 4.04657 8.57945 4.0113C10.4321 3.5085 12.3854 3.50882 14.2379 4.01221C14.3664 4.04745 14.501 4.05441 14.6324 4.03263C14.7638 4.01084 14.889 3.96081 14.9992 3.886C15.6633 3.39387 16.41 3.02433 17.2041 2.79477C17.3258 3.26699 17.353 3.75861 17.2842 4.24138C17.251 4.43162 17.1991 4.61813 17.1293 4.79819C17.069 4.95544 17.0532 5.12627 17.0836 5.29192C17.114 5.45758 17.1894 5.61165 17.3017 5.73723C17.3724 5.8169 17.4431 5.90284 17.5067 5.9834C18.0624 6.67816 18.3552 7.54675 18.3334 8.43618C18.335 8.67416 18.3235 8.91204 18.2989 9.14875C18.0971 11.9498 16.7171 13.2406 13.5361 13.6032C13.3596 13.6233 13.1927 13.6942 13.0558 13.8074C12.9189 13.9206 12.8178 14.0711 12.7649 14.2406C12.7119 14.4102 12.7093 14.5915 12.7575 14.7625C12.8057 14.9335 12.9025 15.0868 13.0361 15.2038C13.2641 15.4284 13.4139 15.7202 13.4636 16.0363C13.5255 16.2817 13.554 16.5343 13.5482 16.7873V18.9268C13.5392 19.5203 13.5392 19.9652 13.5392 20.1693C13.5392 20.4124 13.6358 20.6456 13.8077 20.8175C13.9796 20.9894 14.2128 21.086 14.4559 21.086C14.699 21.086 14.9322 20.9894 15.1041 20.8175C15.276 20.6456 15.3726 20.4124 15.3726 20.1693C15.3726 19.9706 15.3726 19.5347 15.3815 18.9411V16.7873C15.3889 16.382 15.3412 15.9776 15.2396 15.5851C15.2106 15.4563 15.175 15.329 15.1331 15.2038C16.5276 14.9721 17.7946 14.2531 18.7087 13.1748C19.6227 12.0965 20.1245 10.7289 20.1246 9.31526C20.1548 9.02323 20.1689 8.72976 20.1667 8.43618C20.1871 7.17006 19.7792 5.93417 19.0092 4.92885L19.0093 4.92883Z" fill="#111827"/>
</svg>
