<svg width="22" height="22" viewBox="0 0 22 22" fill="none" xmlns="http://www.w3.org/2000/svg">
<path d="M19.1756 9.76522C18.8873 9.60946 16.4157 8.17538 15.4883 7.63559L15.4856 7.63375L4.25201 1.14821C4.06063 1.03138 3.84603 0.957783 3.62323 0.93256C3.40043 0.907337 3.17481 0.931099 2.96216 1.00218C2.93816 1.0108 2.91561 1.01947 2.89228 1.03015C2.83811 1.04781 2.78516 1.069 2.73378 1.0936C2.51899 1.22199 2.34278 1.40589 2.22368 1.62596C2.10459 1.84604 2.04702 2.09414 2.05702 2.34418V19.7474C2.0502 19.9804 2.10537 20.2109 2.21689 20.4155C2.3284 20.6202 2.49226 20.7915 2.6917 20.912C2.7377 20.9345 2.7851 20.954 2.83359 20.9705C2.86011 20.9827 2.88539 20.9934 2.91276 21.003C3.04403 21.0506 3.18229 21.0761 3.32191 21.0786C3.59003 21.0757 3.8527 21.0025 4.08372 20.8664C4.44 20.6596 15.4856 14.2823 15.4856 14.2823L19.1711 12.1545C19.399 12.0403 19.5913 11.8661 19.7273 11.6506C19.8633 11.435 19.9378 11.1864 19.9428 10.9316C19.9316 10.6862 19.8544 10.4483 19.7194 10.2431C19.5844 10.0378 19.3965 9.87273 19.1756 9.76522ZM3.89036 18.1857V3.76001L11.1688 10.9642L3.89036 18.1857ZM8.49019 16.2042L12.4717 12.2537L13.5255 13.2967C12.3662 13.9662 10.4076 15.0971 8.49019 16.2042V16.2042ZM12.4702 9.67293L8.43879 5.68269L13.5296 8.6218L12.4702 9.67293ZM15.1714 12.3466L13.7731 10.9626L15.1735 9.5731C15.8338 9.95652 16.8628 10.5533 17.5714 10.9612L15.1714 12.3466Z" fill="#111827"/>
</svg>
