<svg width="22" height="22" viewBox="0 0 22 22" fill="none" xmlns="http://www.w3.org/2000/svg">
<path d="M18.48 4.58334C17.5084 3.60911 16.2203 3.0145 14.8485 2.90691C13.4768 2.79932 12.1117 3.18585 11 3.99667C9.83373 3.12917 8.38204 2.73581 6.93731 2.89579C5.49258 3.05577 4.16212 3.75722 3.21386 4.85887C2.2656 5.96053 1.76997 7.38056 1.82678 8.83302C1.8836 10.2855 2.48863 11.6624 3.52005 12.6867L9.21255 18.3883C9.68923 18.8575 10.3312 19.1204 11 19.1204C11.6689 19.1204 12.3109 18.8575 12.7875 18.3883L18.48 12.6867C19.5503 11.6098 20.1511 10.1533 20.1511 8.635C20.1511 7.11675 19.5503 5.66018 18.48 4.58334ZM17.1875 11.4217L11.495 17.1142C11.4303 17.1796 11.3532 17.2315 11.2682 17.2669C11.1832 17.3024 11.0921 17.3206 11 17.3206C10.908 17.3206 10.8168 17.3024 10.7319 17.2669C10.6469 17.2315 10.5698 17.1796 10.505 17.1142L4.81255 11.3942C4.09366 10.6593 3.69111 9.67218 3.69111 8.64417C3.69111 7.61616 4.09366 6.62902 4.81255 5.89417C5.54511 5.17091 6.53311 4.76536 7.56255 4.76536C8.59199 4.76536 9.57999 5.17091 10.3125 5.89417C10.3978 5.98009 10.4991 6.04828 10.6109 6.09482C10.7226 6.14136 10.8424 6.16532 10.9634 6.16532C11.0844 6.16532 11.2042 6.14136 11.3159 6.09482C11.4276 6.04828 11.529 5.98009 11.6142 5.89417C12.3468 5.17091 13.3348 4.76536 14.3642 4.76536C15.3937 4.76536 16.3817 5.17091 17.1142 5.89417C17.843 6.61939 18.2588 7.60118 18.2725 8.62922C18.2862 9.65725 17.8967 10.6498 17.1875 11.3942V11.4217Z" fill="#111827"/>
</svg>
