<svg width="22" height="22" viewBox="0 0 22 22" fill="none" xmlns="http://www.w3.org/2000/svg">
<path d="M17.4167 3.66666H4.58337C3.85403 3.66666 3.15456 3.95639 2.63883 4.47211C2.12311 4.98784 1.83337 5.68731 1.83337 6.41666V15.5833C1.83337 16.3127 2.12311 17.0121 2.63883 17.5279C3.15456 18.0436 3.85403 18.3333 4.58337 18.3333H17.4167C18.1461 18.3333 18.8455 18.0436 19.3613 17.5279C19.877 17.0121 20.1667 16.3127 20.1667 15.5833V6.41666C20.1667 5.68731 19.877 4.98784 19.3613 4.47211C18.8455 3.95639 18.1461 3.66666 17.4167 3.66666ZM4.58337 16.5C4.34026 16.5 4.1071 16.4034 3.93519 16.2315C3.76328 16.0596 3.66671 15.8264 3.66671 15.5833V13.365L6.69171 10.3492C6.86306 10.1812 7.09343 10.0871 7.33337 10.0871C7.57331 10.0871 7.80369 10.1812 7.97504 10.3492L14.1259 16.5H4.58337ZM18.3334 15.5833C18.3334 15.8264 18.2368 16.0596 18.0649 16.2315C17.893 16.4034 17.6598 16.5 17.4167 16.5H16.7109L13.2184 12.9892L14.025 12.1825C14.1964 12.0145 14.4268 11.9205 14.6667 11.9205C14.9066 11.9205 15.137 12.0145 15.3084 12.1825L18.3334 15.1983V15.5833ZM18.3334 12.6133L16.61 10.8992C16.0876 10.3972 15.3912 10.1169 14.6667 10.1169C13.9422 10.1169 13.2458 10.3972 12.7234 10.8992L11.9167 11.7058L9.27671 9.06582C8.75426 8.56389 8.05787 8.28356 7.33337 8.28356C6.60888 8.28356 5.91249 8.56389 5.39004 9.06582L3.66671 10.78V6.41666C3.66671 6.17354 3.76328 5.94038 3.93519 5.76848C4.1071 5.59657 4.34026 5.49999 4.58337 5.49999H17.4167C17.6598 5.49999 17.893 5.59657 18.0649 5.76848C18.2368 5.94038 18.3334 6.17354 18.3334 6.41666V12.6133Z" fill="#111827"/>
</svg>
