<svg width="22" height="22" viewBox="0 0 22 22" fill="none" xmlns="http://www.w3.org/2000/svg">
<path d="M11 1.83331C9.18705 1.83331 7.41477 2.37093 5.90732 3.37817C4.39987 4.38542 3.22495 5.81706 2.53115 7.49205C1.83735 9.16704 1.65582 11.0101 2.00951 12.7883C2.36321 14.5665 3.23625 16.1998 4.51823 17.4818C5.80021 18.7638 7.43356 19.6368 9.21172 19.9905C10.9899 20.3442 12.833 20.1627 14.508 19.4689C16.183 18.7751 17.6146 17.6002 18.6218 16.0927C19.6291 14.5853 20.1667 12.813 20.1667 11C20.164 8.56966 19.1974 6.23965 17.4789 4.52115C15.7604 2.80265 13.4304 1.83602 11 1.83331ZM11 18.3333C9.54965 18.3333 8.13182 17.9032 6.92586 17.0974C5.7199 16.2916 4.77997 15.1463 4.22493 13.8063C3.66989 12.4663 3.52466 10.9918 3.80762 9.56932C4.09058 8.14679 4.78901 6.84012 5.81459 5.81453C6.84018 4.78894 8.14686 4.09051 9.56938 3.80755C10.9919 3.5246 12.4664 3.66982 13.8064 4.22486C15.1464 4.77991 16.2917 5.71984 17.0975 6.9258C17.9033 8.13176 18.3334 9.54958 18.3334 11C18.3312 12.9442 17.5578 14.8082 16.183 16.183C14.8083 17.5578 12.9443 18.3311 11 18.3333ZM11 10.5416C10.7569 10.5416 10.5238 10.6382 10.3519 10.8101C10.18 10.982 10.0834 11.2152 10.0834 11.4583V14.2083C10.0834 14.4514 10.18 14.6846 10.3519 14.8565C10.5238 15.0284 10.7569 15.125 11 15.125C11.2432 15.125 11.4763 15.0284 11.6482 14.8565C11.8201 14.6846 11.9167 14.4514 11.9167 14.2083V11.4583C11.9167 11.2152 11.8201 10.982 11.6482 10.8101C11.4763 10.6382 11.2432 10.5416 11 10.5416ZM11 6.87498C10.7734 6.87498 10.5519 6.94218 10.3635 7.06809C10.175 7.19399 10.0282 7.37295 9.94143 7.58232C9.85471 7.79169 9.83202 8.02208 9.87623 8.24435C9.92044 8.46662 10.0296 8.67079 10.1898 8.83104C10.3501 8.99129 10.5542 9.10042 10.7765 9.14463C10.9988 9.18884 11.2292 9.16615 11.4385 9.07942C11.6479 8.9927 11.8269 8.84583 11.9528 8.6574C12.0787 8.46897 12.1459 8.24744 12.1459 8.02081C12.1459 7.71692 12.0252 7.42547 11.8103 7.21059C11.5954 6.9957 11.3039 6.87498 11 6.87498Z" fill="#111827"/>
</svg>
