<svg width="22" height="22" viewBox="0 0 22 22" fill="none" xmlns="http://www.w3.org/2000/svg">
<path d="M2.2917 8.12166L10.5417 12.8883C10.6811 12.9688 10.8391 13.0111 11 13.0111C11.1609 13.0111 11.319 12.9688 11.4584 12.8883L19.7084 8.12166C19.8469 8.04168 19.9621 7.92683 20.0425 7.78853C20.1229 7.65023 20.1657 7.4933 20.1667 7.33333C20.1673 7.1718 20.1253 7.01297 20.0448 6.87293C19.9643 6.73288 19.8483 6.61659 19.7084 6.53583L11.4584 1.77833C11.319 1.69787 11.1609 1.65552 11 1.65552C10.8391 1.65552 10.6811 1.69787 10.5417 1.77833L2.2917 6.53583C2.15182 6.61659 2.03575 6.73288 1.95527 6.87293C1.87478 7.01297 1.83273 7.1718 1.83337 7.33333C1.83434 7.4933 1.87715 7.65023 1.95756 7.78853C2.03796 7.92683 2.15316 8.04168 2.2917 8.12166ZM11 3.66666L17.4167 7.33333L11 11L4.58337 7.33333L11 3.66666ZM18.7917 10.2392L11 14.6667L3.20837 10.2025C3.10375 10.1419 2.98817 10.1026 2.86829 10.0868C2.74841 10.0711 2.6266 10.0792 2.50987 10.1107C2.39314 10.1422 2.2838 10.1965 2.18815 10.2705C2.0925 10.3445 2.01242 10.4366 1.95254 10.5417C1.83303 10.7521 1.80162 11.0013 1.86516 11.2349C1.9287 11.4685 2.08203 11.6674 2.2917 11.7883L10.5417 16.555C10.6811 16.6354 10.8391 16.6778 11 16.6778C11.1609 16.6778 11.319 16.6354 11.4584 16.555L19.7084 11.7883C19.918 11.6674 20.0714 11.4685 20.1349 11.2349C20.1985 11.0013 20.167 10.7521 20.0475 10.5417C19.9877 10.4366 19.9076 10.3445 19.8119 10.2705C19.7163 10.1965 19.6069 10.1422 19.4902 10.1107C19.3735 10.0792 19.2517 10.0711 19.1318 10.0868C19.0119 10.1026 18.8963 10.1419 18.7917 10.2025V10.2392ZM18.7917 13.9058L11 18.3333L3.20837 13.8692C3.10375 13.8086 2.98817 13.7692 2.86829 13.7535C2.74841 13.7377 2.6266 13.7459 2.50987 13.7774C2.39314 13.8089 2.2838 13.8632 2.18815 13.9372C2.0925 14.0111 2.01242 14.1033 1.95254 14.2083C1.83303 14.4188 1.80162 14.668 1.86516 14.9016C1.9287 15.1351 2.08203 15.3341 2.2917 15.455L10.5417 20.2217C10.6811 20.3021 10.8391 20.3445 11 20.3445C11.1609 20.3445 11.319 20.3021 11.4584 20.2217L19.7084 15.455C19.918 15.3341 20.0714 15.1351 20.1349 14.9016C20.1985 14.668 20.167 14.4188 20.0475 14.2083C19.9877 14.1033 19.9076 14.0111 19.8119 13.9372C19.7163 13.8632 19.6069 13.8089 19.4902 13.7774C19.3735 13.7459 19.2517 13.7377 19.1318 13.7535C19.0119 13.7692 18.8963 13.8086 18.7917 13.8692V13.9058Z" fill="#111827"/>
</svg>
