<svg width="22" height="22" viewBox="0 0 22 22" fill="none" xmlns="http://www.w3.org/2000/svg">
<path d="M11 1.83333C9.05504 1.83333 7.18978 2.60595 5.81451 3.98121C4.43924 5.35648 3.66663 7.22174 3.66663 9.16666C3.66663 14.1167 10.1291 19.7083 10.4041 19.9467C10.5702 20.0887 10.7815 20.1667 11 20.1667C11.2184 20.1667 11.4298 20.0887 11.5958 19.9467C11.9166 19.7083 18.3333 14.1167 18.3333 9.16666C18.3333 7.22174 17.5607 5.35648 16.1854 3.98121C14.8101 2.60595 12.9449 1.83333 11 1.83333ZM11 18.0125C9.04746 16.1792 5.49996 12.2283 5.49996 9.16666C5.49996 7.70797 6.07942 6.30902 7.11087 5.27757C8.14232 4.24612 9.54127 3.66666 11 3.66666C12.4586 3.66666 13.8576 4.24612 14.889 5.27757C15.9205 6.30902 16.5 7.70797 16.5 9.16666C16.5 12.2283 12.9525 16.1883 11 18.0125ZM11 5.49999C10.2748 5.49999 9.56585 5.71504 8.96287 6.11794C8.35989 6.52084 7.88992 7.09349 7.6124 7.76349C7.33488 8.43348 7.26227 9.17073 7.40375 9.88199C7.54522 10.5933 7.89444 11.2466 8.40723 11.7594C8.92003 12.2722 9.57336 12.6214 10.2846 12.7629C10.9959 12.9044 11.7331 12.8317 12.4031 12.5542C13.0731 12.2767 13.6458 11.8067 14.0487 11.2038C14.4516 10.6008 14.6666 9.89186 14.6666 9.16666C14.6666 8.1942 14.2803 7.26157 13.5927 6.57394C12.9051 5.8863 11.9724 5.49999 11 5.49999ZM11 11C10.6374 11 10.2829 10.8925 9.98141 10.691C9.67992 10.4896 9.44494 10.2032 9.30618 9.86825C9.16742 9.53325 9.13111 9.16463 9.20185 8.809C9.27259 8.45336 9.4472 8.1267 9.7036 7.8703C9.95999 7.6139 10.2867 7.43929 10.6423 7.36855C10.9979 7.29781 11.3665 7.33412 11.7015 7.47288C12.0365 7.61164 12.3229 7.84663 12.5243 8.14812C12.7258 8.44961 12.8333 8.80406 12.8333 9.16666C12.8333 9.65289 12.6401 10.1192 12.2963 10.463C11.9525 10.8068 11.4862 11 11 11Z" fill="#111827"/>
</svg>
