<svg width="22" height="22" viewBox="0 0 22 22" fill="none" xmlns="http://www.w3.org/2000/svg">
<path d="M11.6509 14.9325L11.5134 14.8225C11.4623 14.7878 11.4068 14.7601 11.3484 14.74L11.1834 14.6667C11.0347 14.6356 10.8807 14.6419 10.7351 14.6851C10.5895 14.7283 10.4569 14.807 10.3492 14.9142C10.2682 15.0033 10.2031 15.1056 10.1567 15.2167C10.0873 15.3837 10.0689 15.5675 10.1038 15.745C10.1386 15.9224 10.2252 16.0856 10.3526 16.214C10.48 16.3424 10.6425 16.4302 10.8197 16.4664C10.9969 16.5026 11.1808 16.4856 11.3484 16.4175C11.4579 16.3644 11.5597 16.2965 11.6509 16.2158C11.7781 16.0869 11.8642 15.9232 11.8985 15.7454C11.9328 15.5676 11.9136 15.3836 11.8434 15.2167C11.7977 15.1107 11.7324 15.0143 11.6509 14.9325ZM14.6667 1.83334H7.33337C6.60403 1.83334 5.90456 2.12307 5.38883 2.6388C4.87311 3.15453 4.58337 3.854 4.58337 4.58334V17.4167C4.58337 18.146 4.87311 18.8455 5.38883 19.3612C5.90456 19.8769 6.60403 20.1667 7.33337 20.1667H14.6667C15.3961 20.1667 16.0955 19.8769 16.6113 19.3612C17.127 18.8455 17.4167 18.146 17.4167 17.4167V4.58334C17.4167 3.854 17.127 3.15453 16.6113 2.6388C16.0955 2.12307 15.3961 1.83334 14.6667 1.83334ZM15.5834 17.4167C15.5834 17.6598 15.4868 17.893 15.3149 18.0649C15.143 18.2368 14.9098 18.3333 14.6667 18.3333H7.33337C7.09026 18.3333 6.8571 18.2368 6.68519 18.0649C6.51328 17.893 6.41671 17.6598 6.41671 17.4167V4.58334C6.41671 4.34023 6.51328 4.10707 6.68519 3.93516C6.8571 3.76325 7.09026 3.66668 7.33337 3.66668H14.6667C14.9098 3.66668 15.143 3.76325 15.3149 3.93516C15.4868 4.10707 15.5834 4.34023 15.5834 4.58334V17.4167Z" fill="#111827"/>
</svg>
