<svg width="22" height="22" viewBox="0 0 22 22" fill="none" xmlns="http://www.w3.org/2000/svg">
<path d="M17.82 11.9167C17.6183 11.9167 17.4075 11.8525 17.2058 11.8067C16.7974 11.7167 16.3961 11.5972 16.005 11.4492C15.5797 11.2945 15.1123 11.3025 14.6926 11.4717C14.2729 11.641 13.9306 11.9594 13.7316 12.3658L13.53 12.7783C12.6371 12.2817 11.8167 11.6648 11.0916 10.945C10.3718 10.2199 9.75497 9.39951 9.2583 8.50668L9.6433 8.25001C10.0497 8.05102 10.3682 7.70875 10.5374 7.28906C10.7066 6.86938 10.7147 6.40193 10.56 5.97668C10.4144 5.58473 10.295 5.18358 10.2025 4.77584C10.1566 4.57418 10.12 4.36334 10.0925 4.15251C9.98116 3.50683 9.64296 2.92211 9.13879 2.50365C8.63462 2.08519 7.99761 1.86049 7.34247 1.87001H4.59247C4.19742 1.8663 3.8062 1.94776 3.44545 2.10883C3.08471 2.2699 2.7629 2.50682 2.50195 2.80344C2.24099 3.10006 2.04701 3.44942 1.93321 3.82775C1.81941 4.20608 1.78846 4.60448 1.84247 4.99584C2.33081 8.83611 4.08466 12.4042 6.82698 15.1366C9.56931 17.869 13.1438 19.6098 16.9858 20.0842H17.3341C18.0101 20.0852 18.6628 19.8372 19.1675 19.3875C19.4575 19.1281 19.6891 18.8102 19.8471 18.4546C20.0052 18.0991 20.0859 17.7141 20.0841 17.325V14.575C20.0729 13.9383 19.841 13.3252 19.4281 12.8404C19.0152 12.3556 18.4468 12.0291 17.82 11.9167ZM18.2783 17.4167C18.2781 17.5468 18.2503 17.6755 18.1965 17.794C18.1428 17.9125 18.0644 18.0183 17.9666 18.1042C17.8645 18.1931 17.7448 18.2595 17.6153 18.299C17.4857 18.3385 17.3493 18.3502 17.215 18.3333C13.782 17.8932 10.5932 16.3226 8.15163 13.8694C5.71007 11.4163 4.15468 8.22007 3.7308 4.78501C3.71621 4.65074 3.729 4.5149 3.76839 4.3857C3.80778 4.25651 3.87295 4.13664 3.95997 4.03334C4.04587 3.93557 4.15161 3.8572 4.27015 3.80346C4.38869 3.74972 4.51732 3.72184 4.64747 3.72168H7.39747C7.61064 3.71693 7.81879 3.78665 7.9861 3.91883C8.15341 4.051 8.26941 4.23737 8.31414 4.44584C8.3508 4.6964 8.39664 4.9439 8.45164 5.18834C8.55753 5.67156 8.69846 6.14643 8.8733 6.60918L7.58997 7.20501C7.48024 7.25536 7.38154 7.32688 7.29953 7.41547C7.21752 7.50407 7.15382 7.60799 7.11209 7.72127C7.07035 7.83455 7.0514 7.95496 7.05633 8.07559C7.06126 8.19621 7.08997 8.31468 7.1408 8.42418C8.46007 11.25 10.7316 13.5216 13.5575 14.8408C13.7806 14.9325 14.031 14.9325 14.2541 14.8408C14.3685 14.8 14.4735 14.7368 14.5632 14.6549C14.6529 14.5731 14.7255 14.4743 14.7766 14.3642L15.345 13.0808C15.8189 13.2503 16.3025 13.3911 16.7933 13.5025C17.0377 13.5575 17.2852 13.6033 17.5358 13.64C17.7443 13.6847 17.9306 13.8007 18.0628 13.968C18.195 14.1354 18.2647 14.3435 18.26 14.5567L18.2783 17.4167Z" fill="#111827"/>
</svg>
