<svg width="22" height="22" viewBox="0 0 22 22" fill="none" xmlns="http://www.w3.org/2000/svg">
<path d="M16.995 8.25L8.13995 3.17167C7.6608 2.89498 7.11695 2.75003 6.56365 2.75155C6.01034 2.75307 5.4673 2.901 4.98967 3.18032C4.51204 3.45963 4.11684 3.86038 3.84422 4.34186C3.57159 4.82334 3.43125 5.36839 3.43745 5.92166V16.115C3.43745 16.9465 3.76775 17.7439 4.35567 18.3318C4.9436 18.9197 5.741 19.25 6.57245 19.25C7.12285 19.2491 7.66337 19.1037 8.13995 18.8283L16.995 13.75C17.4708 13.4746 17.8658 13.079 18.1404 12.6027C18.415 12.1265 18.5596 11.5864 18.5596 11.0367C18.5596 10.4869 18.415 9.94684 18.1404 9.4706C17.8658 8.99436 17.4708 8.59871 16.995 8.32333V8.25ZM16.0783 12.0908L7.22329 17.2425C7.02481 17.355 6.80058 17.4141 6.57245 17.4141C6.34432 17.4141 6.12009 17.355 5.92162 17.2425C5.72371 17.1282 5.55937 16.9639 5.44512 16.766C5.33087 16.568 5.27075 16.3435 5.27079 16.115V5.885C5.27075 5.65647 5.33087 5.43196 5.44512 5.23404C5.55937 5.03612 5.72371 4.87176 5.92162 4.7575C6.12091 4.64672 6.34447 4.5869 6.57245 4.58333C6.80027 4.58801 7.02358 4.64777 7.22329 4.7575L16.0783 9.8725C16.2763 9.98671 16.4407 10.151 16.555 10.349C16.6693 10.5469 16.7295 10.7714 16.7295 11C16.7295 11.2286 16.6693 11.4531 16.555 11.651C16.4407 11.8489 16.2763 12.0133 16.0783 12.1275V12.0908Z" fill="#111827"/>
</svg>
