<svg width="22" height="22" viewBox="0 0 22 22" fill="none" xmlns="http://www.w3.org/2000/svg">
<path d="M11 1.83331C9.18705 1.83331 7.41477 2.37093 5.90732 3.37817C4.39987 4.38542 3.22495 5.81706 2.53115 7.49205C1.83735 9.16704 1.65582 11.0101 2.00951 12.7883C2.36321 14.5665 3.23625 16.1998 4.51823 17.4818C5.80021 18.7638 7.43356 19.6368 9.21172 19.9905C10.9899 20.3442 12.833 20.1627 14.508 19.4689C16.183 18.7751 17.6146 17.6002 18.6218 16.0927C19.6291 14.5853 20.1667 12.813 20.1667 11C20.1667 9.7962 19.9296 8.6042 19.4689 7.49205C19.0083 6.3799 18.3331 5.36937 17.4819 4.51817C16.6307 3.66696 15.6201 2.99175 14.508 2.53108C13.3958 2.07042 12.2038 1.83331 11 1.83331ZM11 18.3333C9.54965 18.3333 8.13182 17.9032 6.92586 17.0974C5.7199 16.2916 4.77997 15.1463 4.22493 13.8063C3.66989 12.4663 3.52466 10.9918 3.80762 9.56932C4.09058 8.14679 4.78901 6.84012 5.81459 5.81453C6.84018 4.78894 8.14686 4.09051 9.56938 3.80755C10.9919 3.5246 12.4664 3.66982 13.8064 4.22486C15.1464 4.77991 16.2917 5.71984 17.0975 6.9258C17.9033 8.13176 18.3334 9.54958 18.3334 11C18.3334 12.9449 17.5608 14.8102 16.1855 16.1854C14.8102 17.5607 12.945 18.3333 11 18.3333ZM14.6667 10.0833H11.9167V7.33331C11.9167 7.0902 11.8201 6.85704 11.6482 6.68513C11.4763 6.51322 11.2432 6.41665 11 6.41665C10.7569 6.41665 10.5238 6.51322 10.3519 6.68513C10.18 6.85704 10.0834 7.0902 10.0834 7.33331V10.0833H7.33338C7.09026 10.0833 6.85711 10.1799 6.6852 10.3518C6.51329 10.5237 6.41671 10.7569 6.41671 11C6.41671 11.2431 6.51329 11.4763 6.6852 11.6482C6.85711 11.8201 7.09026 11.9166 7.33338 11.9166H10.0834V14.6666C10.0834 14.9098 10.18 15.1429 10.3519 15.3148C10.5238 15.4867 10.7569 15.5833 11 15.5833C11.2432 15.5833 11.4763 15.4867 11.6482 15.3148C11.8201 15.1429 11.9167 14.9098 11.9167 14.6666V11.9166H14.6667C14.9098 11.9166 15.143 11.8201 15.3149 11.6482C15.4868 11.4763 15.5834 11.2431 15.5834 11C15.5834 10.7569 15.4868 10.5237 15.3149 10.3518C15.143 10.1799 14.9098 10.0833 14.6667 10.0833Z" fill="#111827"/>
</svg>
