<svg width="22" height="22" viewBox="0 0 22 22" fill="none" xmlns="http://www.w3.org/2000/svg">
<path d="M10.3492 14.0158C10.3098 14.0594 10.2731 14.1053 10.2392 14.1533C10.2045 14.2044 10.1768 14.2599 10.1567 14.3183C10.1303 14.3703 10.1117 14.4259 10.1017 14.4833C10.0972 14.5444 10.0972 14.6056 10.1017 14.6667C10.0986 14.7869 10.1237 14.9062 10.175 15.015C10.2162 15.1287 10.2819 15.2321 10.3674 15.3176C10.453 15.4031 10.5563 15.4688 10.67 15.51C10.7798 15.5585 10.8984 15.5835 11.0184 15.5835C11.1383 15.5835 11.257 15.5585 11.3667 15.51C11.4805 15.4688 11.5838 15.4031 11.6693 15.3176C11.7549 15.2321 11.8205 15.1287 11.8617 15.015C11.9024 14.9035 11.9211 14.7852 11.9167 14.6667C11.9174 14.546 11.8943 14.4264 11.8487 14.3147C11.8031 14.2031 11.7358 14.1015 11.6509 14.0158C11.5657 13.9299 11.4643 13.8617 11.3526 13.8152C11.2409 13.7686 11.1211 13.7447 11 13.7447C10.879 13.7447 10.7592 13.7686 10.6475 13.8152C10.5358 13.8617 10.4344 13.9299 10.3492 14.0158ZM11 1.83333C9.18705 1.83333 7.41477 2.37094 5.90732 3.37819C4.39987 4.38544 3.22495 5.81707 2.53115 7.49206C1.83735 9.16705 1.65582 11.0102 2.00951 12.7883C2.36321 14.5665 3.23625 16.1998 4.51823 17.4818C5.80021 18.7638 7.43356 19.6368 9.21172 19.9905C10.9899 20.3442 12.833 20.1627 14.508 19.4689C16.183 18.7751 17.6146 17.6002 18.6218 16.0927C19.6291 14.5853 20.1667 12.813 20.1667 11C20.1667 9.79621 19.9296 8.60421 19.4689 7.49206C19.0083 6.37991 18.3331 5.36939 17.4819 4.51818C16.6307 3.66698 15.6201 2.99177 14.508 2.5311C13.3958 2.07043 12.2038 1.83333 11 1.83333ZM11 18.3333C9.54965 18.3333 8.13182 17.9032 6.92586 17.0974C5.7199 16.2916 4.77997 15.1463 4.22493 13.8063C3.66989 12.4663 3.52466 10.9919 3.80762 9.56933C4.09058 8.14681 4.78901 6.84013 5.81459 5.81455C6.84018 4.78896 8.14686 4.09053 9.56938 3.80757C10.9919 3.52461 12.4664 3.66984 13.8064 4.22488C15.1464 4.77992 16.2917 5.71985 17.0975 6.92581C17.9033 8.13177 18.3334 9.5496 18.3334 11C18.3334 12.9449 17.5608 14.8102 16.1855 16.1854C14.8102 17.5607 12.945 18.3333 11 18.3333ZM11 6.41666C10.517 6.41635 10.0424 6.54327 9.62405 6.78465C9.20566 7.02603 8.85822 7.37335 8.61671 7.79166C8.55039 7.89599 8.50585 8.01267 8.48579 8.13466C8.46572 8.25665 8.47054 8.38144 8.49995 8.50152C8.52937 8.6216 8.58277 8.73449 8.65694 8.83339C8.73111 8.9323 8.82453 9.01518 8.93156 9.07705C9.03859 9.13892 9.15704 9.1785 9.27977 9.19341C9.40249 9.20832 9.52697 9.19824 9.6457 9.1638C9.76444 9.12935 9.87498 9.07124 9.97067 8.99297C10.0664 8.9147 10.1452 8.81787 10.2025 8.70833C10.2833 8.56844 10.3996 8.45238 10.5396 8.37189C10.6797 8.29141 10.8385 8.24935 11 8.24999C11.2432 8.24999 11.4763 8.34657 11.6482 8.51848C11.8201 8.69039 11.9167 8.92355 11.9167 9.16666C11.9167 9.40978 11.8201 9.64293 11.6482 9.81484C11.4763 9.98675 11.2432 10.0833 11 10.0833C10.7569 10.0833 10.5238 10.1799 10.3519 10.3518C10.18 10.5237 10.0834 10.7569 10.0834 11V11.9167C10.0834 12.1598 10.18 12.3929 10.3519 12.5648C10.5238 12.7368 10.7569 12.8333 11 12.8333C11.2432 12.8333 11.4763 12.7368 11.6482 12.5648C11.8201 12.3929 11.9167 12.1598 11.9167 11.9167V11.7517C12.523 11.5317 13.0326 11.1056 13.3566 10.548C13.6805 9.9903 13.7982 9.33651 13.689 8.70089C13.5798 8.06528 13.2506 7.48826 12.7591 7.07072C12.2676 6.65317 11.645 6.42166 11 6.41666Z" fill="#111827"/>
</svg>
