<svg width="22" height="22" viewBox="0 0 22 22" fill="none" xmlns="http://www.w3.org/2000/svg">
<path d="M13.75 15.5833C13.5687 15.5833 13.3915 15.6371 13.2408 15.7378C13.09 15.8386 12.9725 15.9817 12.9032 16.1492C12.8338 16.3167 12.8156 16.501 12.851 16.6788C12.8864 16.8567 12.9737 17.02 13.1019 17.1482C13.2301 17.2764 13.3934 17.3637 13.5712 17.3991C13.749 17.4344 13.9333 17.4163 14.1008 17.3469C14.2683 17.2775 14.4115 17.16 14.5122 17.0093C14.6129 16.8585 14.6667 16.6813 14.6667 16.5C14.6667 16.2569 14.5701 16.0237 14.3982 15.8518C14.2263 15.6799 13.9932 15.5833 13.75 15.5833ZM8.25004 15.5833H5.50004C5.25693 15.5833 5.02377 15.6799 4.85186 15.8518C4.67995 16.0237 4.58337 16.2569 4.58337 16.5C4.58337 16.7431 4.67995 16.9763 4.85186 17.1482C5.02377 17.3201 5.25693 17.4167 5.50004 17.4167H8.25004C8.49316 17.4167 8.72631 17.3201 8.89822 17.1482C9.07013 16.9763 9.16671 16.7431 9.16671 16.5C9.16671 16.2569 9.07013 16.0237 8.89822 15.8518C8.72631 15.6799 8.49316 15.5833 8.25004 15.5833ZM16.5 15.5833C16.3187 15.5833 16.1415 15.6371 15.9908 15.7378C15.84 15.8386 15.7225 15.9817 15.6532 16.1492C15.5838 16.3167 15.5656 16.501 15.601 16.6788C15.6364 16.8567 15.7237 17.02 15.8519 17.1482C15.9801 17.2764 16.1434 17.3637 16.3212 17.3991C16.499 17.4344 16.6833 17.4163 16.8508 17.3469C17.0183 17.2775 17.1615 17.16 17.2622 17.0093C17.3629 16.8585 17.4167 16.6813 17.4167 16.5C17.4167 16.2569 17.3201 16.0237 17.1482 15.8518C16.9763 15.6799 16.7432 15.5833 16.5 15.5833ZM13.75 10.0833C13.5687 10.0833 13.3915 10.1371 13.2408 10.2378C13.09 10.3386 12.9725 10.4817 12.9032 10.6492C12.8338 10.8167 12.8156 11.001 12.851 11.1788C12.8864 11.3567 12.9737 11.52 13.1019 11.6482C13.2301 11.7764 13.3934 11.8637 13.5712 11.8991C13.749 11.9344 13.9333 11.9163 14.1008 11.8469C14.2683 11.7775 14.4115 11.66 14.5122 11.5093C14.6129 11.3585 14.6667 11.1813 14.6667 11C14.6667 10.7569 14.5701 10.5237 14.3982 10.3518C14.2263 10.1799 13.9932 10.0833 13.75 10.0833ZM8.25004 10.0833H5.50004C5.25693 10.0833 5.02377 10.1799 4.85186 10.3518C4.67995 10.5237 4.58337 10.7569 4.58337 11C4.58337 11.2431 4.67995 11.4763 4.85186 11.6482C5.02377 11.8201 5.25693 11.9167 5.50004 11.9167H8.25004C8.49316 11.9167 8.72631 11.8201 8.89822 11.6482C9.07013 11.4763 9.16671 11.2431 9.16671 11C9.16671 10.7569 9.07013 10.5237 8.89822 10.3518C8.72631 10.1799 8.49316 10.0833 8.25004 10.0833ZM16.5 4.58334C16.3187 4.58334 16.1415 4.63711 15.9908 4.73783C15.84 4.83855 15.7225 4.98172 15.6532 5.14922C15.5838 5.31672 15.5656 5.50103 15.601 5.67884C15.6364 5.85666 15.7237 6.01999 15.8519 6.14819C15.9801 6.27639 16.1434 6.36369 16.3212 6.39906C16.499 6.43443 16.6833 6.41628 16.8508 6.3469C17.0183 6.27752 17.1615 6.16003 17.2622 6.00928C17.3629 5.85854 17.4167 5.68131 17.4167 5.50001C17.4167 5.2569 17.3201 5.02374 17.1482 4.85183C16.9763 4.67992 16.7432 4.58334 16.5 4.58334ZM16.5 10.0833C16.3187 10.0833 16.1415 10.1371 15.9908 10.2378C15.84 10.3386 15.7225 10.4817 15.6532 10.6492C15.5838 10.8167 15.5656 11.001 15.601 11.1788C15.6364 11.3567 15.7237 11.52 15.8519 11.6482C15.9801 11.7764 16.1434 11.8637 16.3212 11.8991C16.499 11.9344 16.6833 11.9163 16.8508 11.8469C17.0183 11.7775 17.1615 11.66 17.2622 11.5093C17.3629 11.3585 17.4167 11.1813 17.4167 11C17.4167 10.7569 17.3201 10.5237 17.1482 10.3518C16.9763 10.1799 16.7432 10.0833 16.5 10.0833ZM20.1667 4.58334C20.1667 3.854 19.877 3.15453 19.3613 2.6388C18.8455 2.12307 18.1461 1.83334 17.4167 1.83334H4.58337C3.85403 1.83334 3.15456 2.12307 2.63883 2.6388C2.12311 3.15453 1.83337 3.854 1.83337 4.58334V6.41668C1.83742 7.09506 2.09207 7.74801 2.54837 8.25001C2.09207 8.75201 1.83742 9.40496 1.83337 10.0833V11.9167C1.83742 12.5951 2.09207 13.248 2.54837 13.75C2.09207 14.252 1.83742 14.905 1.83337 15.5833V17.4167C1.83337 18.146 2.12311 18.8455 2.63883 19.3612C3.15456 19.8769 3.85403 20.1667 4.58337 20.1667H17.4167C18.1461 20.1667 18.8455 19.8769 19.3613 19.3612C19.877 18.8455 20.1667 18.146 20.1667 17.4167V15.5833C20.1627 14.905 19.908 14.252 19.4517 13.75C19.908 13.248 20.1627 12.5951 20.1667 11.9167V10.0833C20.1627 9.40496 19.908 8.75201 19.4517 8.25001C19.908 7.74801 20.1627 7.09506 20.1667 6.41668V4.58334ZM18.3334 17.4167C18.3334 17.6598 18.2368 17.893 18.0649 18.0649C17.893 18.2368 17.6598 18.3333 17.4167 18.3333H4.58337C4.34026 18.3333 4.1071 18.2368 3.93519 18.0649C3.76328 17.893 3.66671 17.6598 3.66671 17.4167V15.5833C3.66671 15.3402 3.76328 15.1071 3.93519 14.9352C4.1071 14.7633 4.34026 14.6667 4.58337 14.6667H17.4167C17.6598 14.6667 17.893 14.7633 18.0649 14.9352C18.2368 15.1071 18.3334 15.3402 18.3334 15.5833V17.4167ZM18.3334 11.9167C18.3334 12.1598 18.2368 12.393 18.0649 12.5649C17.893 12.7368 17.6598 12.8333 17.4167 12.8333H4.58337C4.34026 12.8333 4.1071 12.7368 3.93519 12.5649C3.76328 12.393 3.66671 12.1598 3.66671 11.9167V10.0833C3.66671 9.84023 3.76328 9.60707 3.93519 9.43516C4.1071 9.26325 4.34026 9.16668 4.58337 9.16668H17.4167C17.6598 9.16668 17.893 9.26325 18.0649 9.43516C18.2368 9.60707 18.3334 9.84023 18.3334 10.0833V11.9167ZM18.3334 6.41668C18.3334 6.65979 18.2368 6.89295 18.0649 7.06486C17.893 7.23677 17.6598 7.33334 17.4167 7.33334H4.58337C4.34026 7.33334 4.1071 7.23677 3.93519 7.06486C3.76328 6.89295 3.66671 6.65979 3.66671 6.41668V4.58334C3.66671 4.34023 3.76328 4.10707 3.93519 3.93516C4.1071 3.76325 4.34026 3.66668 4.58337 3.66668H17.4167C17.6598 3.66668 17.893 3.76325 18.0649 3.93516C18.2368 4.10707 18.3334 4.34023 18.3334 4.58334V6.41668ZM13.75 4.58334C13.5687 4.58334 13.3915 4.63711 13.2408 4.73783C13.09 4.83855 12.9725 4.98172 12.9032 5.14922C12.8338 5.31672 12.8156 5.50103 12.851 5.67884C12.8864 5.85666 12.9737 6.01999 13.1019 6.14819C13.2301 6.27639 13.3934 6.36369 13.5712 6.39906C13.749 6.43443 13.9333 6.41628 14.1008 6.3469C14.2683 6.27752 14.4115 6.16003 14.5122 6.00928C14.6129 5.85854 14.6667 5.68131 14.6667 5.50001C14.6667 5.2569 14.5701 5.02374 14.3982 4.85183C14.2263 4.67992 13.9932 4.58334 13.75 4.58334ZM8.25004 4.58334H5.50004C5.25693 4.58334 5.02377 4.67992 4.85186 4.85183C4.67995 5.02374 4.58337 5.2569 4.58337 5.50001C4.58337 5.74313 4.67995 5.97628 4.85186 6.14819C5.02377 6.3201 5.25693 6.41668 5.50004 6.41668H8.25004C8.49316 6.41668 8.72631 6.3201 8.89822 6.14819C9.07013 5.97628 9.16671 5.74313 9.16671 5.50001C9.16671 5.2569 9.07013 5.02374 8.89822 4.85183C8.72631 4.67992 8.49316 4.58334 8.25004 4.58334Z" fill="#111827"/>
</svg>
