<svg width="22" height="22" viewBox="0 0 22 22" fill="none" xmlns="http://www.w3.org/2000/svg">
<path d="M17.9941 3.34583C17.8876 3.25968 17.7632 3.1985 17.6299 3.16677C17.4967 3.13505 17.358 3.13359 17.2241 3.1625C16.2446 3.36778 15.2334 3.37039 14.2529 3.17018C13.2723 2.96997 12.3431 2.57117 11.5225 1.99833C11.369 1.89188 11.1867 1.83484 11 1.83484C10.8132 1.83484 10.6309 1.89188 10.4775 1.99833C9.65682 2.57117 8.72762 2.96997 7.74705 3.17018C6.76648 3.37039 5.75531 3.36778 4.7758 3.1625C4.64191 3.13359 4.50324 3.13505 4.36999 3.16677C4.23674 3.1985 4.11229 3.25968 4.0058 3.34583C3.89945 3.43211 3.81378 3.54111 3.75508 3.66485C3.69639 3.78858 3.66617 3.92389 3.66663 4.06083V10.89C3.66582 12.2043 3.97901 13.4997 4.58012 14.6685C5.18124 15.8372 6.05288 16.8454 7.12246 17.6092L10.4683 19.9925C10.6235 20.103 10.8094 20.1624 11 20.1624C11.1905 20.1624 11.3764 20.103 11.5316 19.9925L14.8775 17.6092C15.947 16.8454 16.8187 15.8372 17.4198 14.6685C18.0209 13.4997 18.3341 12.2043 18.3333 10.89V4.06083C18.3338 3.92389 18.3035 3.78858 18.2448 3.66485C18.1862 3.54111 18.1005 3.43211 17.9941 3.34583ZM16.5 10.89C16.5007 11.9119 16.2573 12.9191 15.7901 13.8279C15.323 14.7368 14.6455 15.5209 13.8141 16.115L11 18.1225L8.1858 16.115C7.35441 15.5209 6.67695 14.7368 6.20978 13.8279C5.74262 12.9191 5.49926 11.9119 5.49996 10.89V5.115C7.42169 5.27948 9.34633 4.8336 11 3.84083C12.6536 4.8336 14.5782 5.27948 16.5 5.115V10.89ZM12.4116 8.79083L9.9458 11.2658L9.12996 10.4408C8.95735 10.2682 8.72324 10.1712 8.47913 10.1712C8.23502 10.1712 8.00091 10.2682 7.8283 10.4408C7.65569 10.6134 7.55871 10.8476 7.55871 11.0917C7.55871 11.3358 7.65569 11.5699 7.8283 11.7425L9.29496 13.2092C9.38018 13.2951 9.48156 13.3633 9.59327 13.4098C9.70497 13.4564 9.82479 13.4803 9.9458 13.4803C10.0668 13.4803 10.1866 13.4564 10.2983 13.4098C10.41 13.3633 10.5114 13.2951 10.5966 13.2092L13.75 10.0833C13.9226 9.91072 14.0195 9.67661 14.0195 9.4325C14.0195 9.18839 13.9226 8.95428 13.75 8.78166C13.5774 8.60905 13.3432 8.51208 13.0991 8.51208C12.855 8.51208 12.6209 8.60905 12.4483 8.78166L12.4116 8.79083Z" fill="#111827"/>
</svg>
