<svg width="22" height="22" viewBox="0 0 22 22" fill="none" xmlns="http://www.w3.org/2000/svg">
<g clip-path="url(#clip0_326_513)">
<path opacity="0.5" d="M13.75 20.1667C13.2437 20.1667 12.8333 19.7563 12.8333 19.25C12.8333 18.7437 13.2437 18.3333 13.75 18.3333C14.2562 18.3333 14.6666 18.7437 14.6666 19.25C14.6666 19.7563 14.2562 20.1667 13.75 20.1667Z" stroke="#D1D5DB" stroke-width="2" stroke-linecap="round" stroke-linejoin="round"/>
<path opacity="0.5" d="M3.66671 20.1667C3.16045 20.1667 2.75004 19.7563 2.75004 19.25C2.75004 18.7437 3.16045 18.3333 3.66671 18.3333C4.17297 18.3333 4.58337 18.7437 4.58337 19.25C4.58337 19.7563 4.17297 20.1667 3.66671 20.1667Z" stroke="#D1D5DB" stroke-width="2" stroke-linecap="round" stroke-linejoin="round"/>
<path d="M21.0834 0.916672H17.4167L14.96 13.1908C14.8762 13.6129 14.6466 13.992 14.3115 14.2618C13.9763 14.5316 13.5569 14.6749 13.1267 14.6667H4.21671C3.78652 14.6749 3.36713 14.5316 3.03196 14.2618C2.69679 13.992 2.4672 13.6129 2.38338 13.1908L0.91671 5.50001H16.5" stroke="#D1D5DB" stroke-width="2" stroke-linecap="round" stroke-linejoin="round"/>
</g>
<defs>
<clipPath id="clip0_326_513">
<rect width="22" height="22" fill="#D1D5DB" transform="matrix(-1 0 0 1 22 0)"/>
</clipPath>
</defs>
</svg>
