<svg width="22" height="22" viewBox="0 0 22 22" fill="none" xmlns="http://www.w3.org/2000/svg">
<path d="M1.83337 13.4475C1.83337 13.9337 2.02653 14.4001 2.37034 14.7439C2.71416 15.0877 3.18048 15.2808 3.66671 15.2808C4.15294 15.2808 4.61925 15.0877 4.96307 14.7439C5.30689 14.4001 5.50004 13.9337 5.50004 13.4475V11.6142H3.66671C3.18048 11.6142 2.71416 11.8073 2.37034 12.1511C2.02653 12.495 1.83337 12.9613 1.83337 13.4475ZM13.42 10.3858C13.9063 10.3858 14.3726 10.1927 14.7164 9.84887C15.0602 9.50505 15.2534 9.03874 15.2534 8.55251V3.66668C15.2534 3.18045 15.0602 2.71413 14.7164 2.37031C14.3726 2.0265 13.9063 1.83334 13.42 1.83334C12.9338 1.83334 12.4675 2.0265 12.1237 2.37031C11.7799 2.71413 11.5867 3.18045 11.5867 3.66668V8.55251C11.5867 8.79482 11.6347 9.03472 11.728 9.25836C11.8213 9.48199 11.958 9.68492 12.1301 9.8554C12.3023 10.0259 12.5066 10.1605 12.7312 10.2516C12.9557 10.3426 13.1961 10.3883 13.4384 10.3858H13.42ZM20.13 8.55251C20.13 8.06628 19.9369 7.59996 19.5931 7.25615C19.2493 6.91233 18.7829 6.71918 18.2967 6.71918C17.8105 6.71918 17.3442 6.91233 17.0003 7.25615C16.6565 7.59996 16.4634 8.06628 16.4634 8.55251V10.3858H18.2967C18.5405 10.3907 18.7829 10.3469 19.0096 10.257C19.2362 10.167 19.4427 10.0327 19.6168 9.86201C19.791 9.69128 19.9293 9.48752 20.0237 9.26267C20.1181 9.03782 20.1668 8.79638 20.1667 8.55251H20.13ZM8.56171 11.6142C8.07548 11.6142 7.60916 11.8073 7.26535 12.1511C6.92153 12.495 6.72837 12.9613 6.72837 13.4475V18.3333C6.72837 18.8196 6.92153 19.2859 7.26535 19.6297C7.60916 19.9735 8.07548 20.1667 8.56171 20.1667C9.04794 20.1667 9.51425 19.9735 9.85807 19.6297C10.2019 19.2859 10.395 18.8196 10.395 18.3333V13.4475C10.395 12.9613 10.2019 12.495 9.85807 12.1511C9.51425 11.8073 9.04794 11.6142 8.56171 11.6142ZM13.4384 16.5H11.605V18.3333C11.605 18.6959 11.7126 19.0504 11.914 19.3519C12.1155 19.6534 12.4018 19.8884 12.7368 20.0271C13.0718 20.1659 13.4404 20.2022 13.796 20.1314C14.1517 20.0607 14.4783 19.8861 14.7347 19.6297C14.9911 19.3733 15.1657 19.0466 15.2365 18.691C15.3072 18.3354 15.2709 17.9668 15.1322 17.6318C14.9934 17.2968 14.7584 17.0104 14.4569 16.809C14.1554 16.6075 13.801 16.5 13.4384 16.5ZM18.3334 11.6142H13.4384C12.9521 11.6142 12.4858 11.8073 12.142 12.1511C11.7982 12.495 11.605 12.9613 11.605 13.4475C11.605 13.9337 11.7982 14.4001 12.142 14.7439C12.4858 15.0877 12.9521 15.2808 13.4384 15.2808H18.3334C18.8196 15.2808 19.2859 15.0877 19.6297 14.7439C19.9736 14.4001 20.1667 13.9337 20.1667 13.4475C20.1667 12.9613 19.9736 12.495 19.6297 12.1511C19.2859 11.8073 18.8196 11.6142 18.3334 11.6142ZM8.56171 6.71918H3.66671C3.18048 6.71918 2.71416 6.91233 2.37034 7.25615C2.02653 7.59996 1.83337 8.06628 1.83337 8.55251C1.83337 9.03874 2.02653 9.50505 2.37034 9.84887C2.71416 10.1927 3.18048 10.3858 3.66671 10.3858H8.56171C9.04794 10.3858 9.51425 10.1927 9.85807 9.84887C10.2019 9.50505 10.395 9.03874 10.395 8.55251C10.395 8.06628 10.2019 7.59996 9.85807 7.25615C9.51425 6.91233 9.04794 6.71918 8.56171 6.71918ZM8.56171 1.83334C8.07548 1.83334 7.60916 2.0265 7.26535 2.37031C6.92153 2.71413 6.72837 3.18045 6.72837 3.66668C6.72837 4.15291 6.92153 4.61922 7.26535 4.96304C7.60916 5.30686 8.07548 5.50001 8.56171 5.50001H10.395V3.66668C10.395 3.18045 10.2019 2.71413 9.85807 2.37031C9.51425 2.0265 9.04794 1.83334 8.56171 1.83334Z" fill="#111827"/>
</svg>
