<svg width="22" height="22" viewBox="0 0 22 22" fill="none" xmlns="http://www.w3.org/2000/svg">
<g clip-path="url(#clip0_42_382)">
<path d="M21.0833 8.70833C21.0823 7.85775 20.7439 7.04229 20.1425 6.44084C19.541 5.83938 18.7256 5.50103 17.875 5.5C17.3983 5.50256 16.9283 5.61256 16.5 5.82182V4.125C16.5009 3.4872 16.3115 2.86362 15.9559 2.33413C15.6003 1.80465 15.0948 1.39336 14.504 1.15295C13.9133 0.912542 13.2642 0.853951 12.6399 0.984683C12.0157 1.11542 11.4446 1.42952 11 1.88677C10.4723 1.338 9.76607 0.995612 9.00842 0.921217C8.25076 0.846823 7.49143 1.04531 6.86709 1.48096C6.24276 1.91661 5.79443 2.5608 5.6028 3.29759C5.41117 4.03438 5.48882 4.81537 5.82178 5.5H4.12497C3.48716 5.49903 2.86359 5.68846 2.3341 6.04405C1.80462 6.39964 1.39333 6.90519 1.15292 7.49595C0.912512 8.08671 0.85392 8.73579 0.984652 9.36005C1.11538 9.98431 1.42949 10.5553 1.88674 11C1.33797 11.5277 0.995581 12.2339 0.921187 12.9916C0.846792 13.7492 1.04528 14.5085 1.48093 15.1329C1.91658 15.7572 2.56077 16.2055 3.29756 16.3972C4.03435 16.5888 4.81534 16.5111 5.49997 16.1782V17.875C5.499 18.5128 5.68843 19.1364 6.04402 19.6659C6.39961 20.1954 6.90516 20.6066 7.49592 20.847C8.08668 21.0875 8.73576 21.1461 9.36002 21.0153C9.98428 20.8846 10.5553 20.5705 11 20.1132C11.5276 20.662 12.2339 21.0044 12.9915 21.0788C13.7492 21.1532 14.5085 20.9547 15.1328 20.519C15.7572 20.0834 16.2055 19.4392 16.3971 18.7024C16.5888 17.9656 16.5111 17.1846 16.1782 16.5H17.875C18.5128 16.501 19.1364 16.3115 19.6658 15.956C20.1953 15.6004 20.6066 15.0948 20.847 14.5041C21.0874 13.9133 21.146 13.2642 21.0153 12.64C20.8846 12.0157 20.5704 11.4447 20.1132 11C20.42 10.7023 20.6639 10.3461 20.8305 9.95249C20.9972 9.55886 21.0831 9.13579 21.0833 8.70833ZM11.9166 4.125C11.9166 3.76033 12.0615 3.41059 12.3194 3.15273C12.5772 2.89487 12.927 2.75 13.2916 2.75C13.6563 2.75 14.006 2.89487 14.2639 3.15273C14.5218 3.41059 14.6666 3.76033 14.6666 4.125V8.70833C14.6666 9.07301 14.5218 9.42274 14.2639 9.68061C14.006 9.93847 13.6563 10.0833 13.2916 10.0833C12.927 10.0833 12.5772 9.93847 12.3194 9.68061C12.0615 9.42274 11.9166 9.07301 11.9166 8.70833V4.125ZM5.49997 13.2917C5.49997 13.5636 5.41933 13.8295 5.26824 14.0556C5.11715 14.2817 4.90241 14.4579 4.65116 14.562C4.39991 14.6661 4.12344 14.6933 3.85672 14.6402C3.59 14.5872 3.345 14.4562 3.1527 14.2639C2.9604 14.0716 2.82944 13.8266 2.77639 13.5599C2.72334 13.2932 2.75056 13.0167 2.85464 12.7655C2.95871 12.5142 3.13494 12.2995 3.36106 12.1484C3.58718 11.9973 3.85302 11.9167 4.12497 11.9167H5.49997V13.2917ZM10.0833 17.875C10.0833 18.2397 9.93844 18.5894 9.68058 18.8473C9.42271 19.1051 9.07298 19.25 8.7083 19.25C8.34363 19.25 7.99389 19.1051 7.73603 18.8473C7.47817 18.5894 7.3333 18.2397 7.3333 17.875V13.2917C7.3333 12.927 7.47817 12.5773 7.73603 12.3194C7.99389 12.0615 8.34363 11.9167 8.7083 11.9167C9.07298 11.9167 9.42271 12.0615 9.68058 12.3194C9.93844 12.5773 10.0833 12.927 10.0833 13.2917V17.875ZM8.7083 10.0833H4.12497C3.7603 10.0833 3.41056 9.93847 3.1527 9.68061C2.89484 9.42274 2.74997 9.07301 2.74997 8.70833C2.74997 8.34366 2.89484 7.99392 3.1527 7.73606C3.41056 7.4782 3.7603 7.33333 4.12497 7.33333H8.7083C9.07298 7.33333 9.42271 7.4782 9.68058 7.73606C9.93844 7.99392 10.0833 8.34366 10.0833 8.70833C10.0833 9.07301 9.93844 9.42274 9.68058 9.68061C9.42271 9.93847 9.07298 10.0833 8.7083 10.0833ZM10.0833 5.5H8.7083C8.43635 5.5 8.17051 5.41936 7.94439 5.26827C7.71828 5.11718 7.54204 4.90244 7.43797 4.65119C7.3339 4.39994 7.30667 4.12348 7.35972 3.85675C7.41278 3.59003 7.54373 3.34503 7.73603 3.15273C7.92833 2.96043 8.17333 2.82948 8.44005 2.77642C8.70678 2.72337 8.98324 2.7506 9.23449 2.85467C9.48574 2.95874 9.70049 3.13497 9.85157 3.36109C10.0027 3.58721 10.0833 3.85305 10.0833 4.125V5.5ZM11 11.0534C10.9822 11.0353 10.9647 11.0177 10.9465 11C10.9647 10.9823 10.9822 10.9647 11 10.9466C11.0177 10.9647 11.0353 10.9823 11.0534 11C11.0353 11.0177 11.0177 11.0353 11 11.0534ZM13.2916 19.25C12.9271 19.2496 12.5776 19.1046 12.3198 18.8468C12.062 18.5891 11.917 18.2396 11.9166 17.875V16.5H13.2916C13.6563 16.5 14.006 16.6449 14.2639 16.9027C14.5218 17.1606 14.6666 17.5103 14.6666 17.875C14.6666 18.2397 14.5218 18.5894 14.2639 18.8473C14.006 19.1051 13.6563 19.25 13.2916 19.25ZM17.875 14.6667H13.2916C12.927 14.6667 12.5772 14.5218 12.3194 14.2639C12.0615 14.0061 11.9166 13.6563 11.9166 13.2917C11.9166 12.927 12.0615 12.5773 12.3194 12.3194C12.5772 12.0615 12.927 11.9167 13.2916 11.9167H17.875C18.2396 11.9167 18.5894 12.0615 18.8472 12.3194C19.1051 12.5773 19.25 12.927 19.25 13.2917C19.25 13.6563 19.1051 14.0061 18.8472 14.2639C18.5894 14.5218 18.2396 14.6667 17.875 14.6667ZM17.875 10.0833H16.5V8.70833C16.5 8.43639 16.5806 8.17054 16.7317 7.94443C16.8828 7.71831 17.0975 7.54207 17.3488 7.438C17.6 7.33393 17.8765 7.3067 18.1432 7.35975C18.4099 7.41281 18.6549 7.54377 18.8472 7.73606C19.0395 7.92836 19.1705 8.17336 19.2236 8.44008C19.2766 8.70681 19.2494 8.98328 19.1453 9.23452C19.0412 9.48577 18.865 9.70052 18.6389 9.85161C18.4128 10.0027 18.1469 10.0833 17.875 10.0833Z" fill="#111827"/>
</g>
<defs>
<clipPath id="clip0_42_382">
<rect width="22" height="22" fill="white"/>
</clipPath>
</defs>
</svg>
