<svg width="22" height="22" viewBox="0 0 22 22" fill="none" xmlns="http://www.w3.org/2000/svg">
<path d="M13.1634 13.0441C12.5506 13.5382 11.7872 13.8076 11 13.8076C10.2129 13.8076 9.44949 13.5382 8.83671 13.0441C8.64951 12.8886 8.40817 12.8137 8.16578 12.836C7.92339 12.8584 7.69981 12.9761 7.54421 13.1633C7.38862 13.3505 7.31376 13.5919 7.33611 13.8342C7.35846 14.0766 7.47618 14.3002 7.66338 14.4558C8.5996 15.2374 9.78048 15.6655 11 15.6655C12.2196 15.6655 13.4005 15.2374 14.3367 14.4558C14.5239 14.3002 14.6416 14.0766 14.664 13.8342C14.6863 13.5919 14.6115 13.3505 14.4559 13.1633C14.3788 13.0706 14.2843 12.994 14.1776 12.9379C14.071 12.8817 13.9543 12.8471 13.8343 12.836C13.5919 12.8137 13.3506 12.8886 13.1634 13.0441ZM8.44254 9.66165C8.61429 9.83238 8.84662 9.92821 9.08879 9.92821C9.33097 9.92821 9.5633 9.83238 9.73504 9.66165C9.90578 9.4899 10.0016 9.25757 10.0016 9.0154C10.0016 8.77323 9.90578 8.54089 9.73504 8.36915C9.21046 7.87139 8.51487 7.5939 7.79171 7.5939C7.06855 7.5939 6.37297 7.87139 5.84838 8.36915C5.75242 8.45132 5.67448 8.55245 5.61946 8.66617C5.56444 8.7799 5.53352 8.90377 5.52865 9.03001C5.52377 9.15626 5.54504 9.28214 5.59113 9.39978C5.63721 9.51741 5.70711 9.62424 5.79645 9.71358C5.88578 9.80291 5.99262 9.87281 6.11025 9.9189C6.22788 9.96498 6.35377 9.98625 6.48001 9.98138C6.60625 9.9765 6.73012 9.94558 6.84385 9.89056C6.95758 9.83554 7.0587 9.7576 7.14088 9.66165C7.22609 9.57573 7.32748 9.50753 7.43918 9.461C7.55089 9.41446 7.6707 9.3905 7.79171 9.3905C7.91272 9.3905 8.03254 9.41446 8.14424 9.461C8.25594 9.50753 8.35733 9.57573 8.44254 9.66165ZM16.1517 8.36915C15.6271 7.87139 14.9315 7.5939 14.2084 7.5939C13.4852 7.5939 12.7896 7.87139 12.265 8.36915C12.1149 8.54451 12.0364 8.77008 12.0453 9.00078C12.0542 9.23148 12.1499 9.45033 12.3131 9.61358C12.4764 9.77683 12.6952 9.87247 12.9259 9.88138C13.1566 9.89029 13.3822 9.81182 13.5575 9.66165C13.6428 9.57573 13.7441 9.50753 13.8559 9.461C13.9676 9.41446 14.0874 9.3905 14.2084 9.3905C14.3294 9.3905 14.4492 9.41446 14.5609 9.461C14.6726 9.50753 14.774 9.57573 14.8592 9.66165C15.031 9.83238 15.2633 9.92821 15.5055 9.92821C15.7476 9.92821 15.98 9.83238 16.1517 9.66165C16.3224 9.4899 16.4183 9.25757 16.4183 9.0154C16.4183 8.77323 16.3224 8.54089 16.1517 8.36915ZM11 1.83331C9.18705 1.83331 7.41477 2.37093 5.90732 3.37817C4.39987 4.38542 3.22495 5.81706 2.53115 7.49205C1.83735 9.16704 1.65582 11.0101 2.00951 12.7883C2.36321 14.5665 3.23625 16.1998 4.51823 17.4818C5.80021 18.7638 7.43356 19.6368 9.21172 19.9905C10.9899 20.3442 12.833 20.1627 14.508 19.4689C16.183 18.7751 17.6146 17.6002 18.6218 16.0927C19.6291 14.5853 20.1667 12.813 20.1667 11C20.1667 9.7962 19.9296 8.6042 19.4689 7.49205C19.0083 6.3799 18.3331 5.36937 17.4819 4.51817C16.6307 3.66696 15.6201 2.99175 14.508 2.53108C13.3958 2.07042 12.2038 1.83331 11 1.83331ZM11 18.3333C9.54965 18.3333 8.13182 17.9032 6.92586 17.0974C5.7199 16.2916 4.77997 15.1463 4.22493 13.8063C3.66989 12.4663 3.52466 10.9918 3.80762 9.56932C4.09058 8.14679 4.78901 6.84012 5.81459 5.81453C6.84018 4.78894 8.14686 4.09051 9.56938 3.80755C10.9919 3.5246 12.4664 3.66982 13.8064 4.22486C15.1464 4.77991 16.2917 5.71984 17.0975 6.9258C17.9033 8.13176 18.3334 9.54958 18.3334 11C18.3334 12.9449 17.5608 14.8102 16.1855 16.1854C14.8102 17.5607 12.945 18.3333 11 18.3333Z" fill="#111827"/>
</svg>
