<svg width="22" height="22" viewBox="0 0 22 22" fill="none" xmlns="http://www.w3.org/2000/svg">
<path d="M11 1.83331C9.18705 1.83331 7.41477 2.37093 5.90732 3.37817C4.39987 4.38542 3.22495 5.81706 2.53115 7.49205C1.83735 9.16704 1.65582 11.0101 2.00951 12.7883C2.36321 14.5665 3.23625 16.1998 4.51823 17.4818C5.80021 18.7638 7.43356 19.6368 9.21172 19.9905C10.9899 20.3442 12.833 20.1627 14.508 19.4689C16.183 18.7751 17.6146 17.6002 18.6218 16.0927C19.6291 14.5853 20.1667 12.813 20.1667 11C20.1667 9.7962 19.9296 8.6042 19.4689 7.49205C19.0083 6.3799 18.3331 5.36937 17.4819 4.51817C16.6307 3.66696 15.6201 2.99175 14.508 2.53108C13.3958 2.07042 12.2038 1.83331 11 1.83331ZM11 3.66665C12.8835 3.66589 14.694 4.39533 16.0509 5.70165C14.6502 6.52316 13.166 7.19306 11.6234 7.69998C10.8557 6.37707 9.97546 5.12272 8.99255 3.95081C9.64518 3.76289 10.3209 3.66724 11 3.66665ZM7.23254 4.72081C8.19292 5.81944 9.05485 7.00038 9.80838 8.24998C8.00905 8.69677 6.16234 8.92453 4.30838 8.92831H3.97838C4.49831 7.16798 5.65949 5.66664 7.23254 4.72081ZM5.50004 15.8675C4.30724 14.528 3.65395 12.7935 3.66671 11C3.66671 10.9083 3.66671 10.8166 3.66671 10.7341H4.29004C6.46014 10.7147 8.61799 10.4065 10.7067 9.81748C11 10.3766 11.275 10.9541 11.5409 11.55C10.1122 12.0536 8.78172 12.8011 7.60838 13.7591L7.33338 13.9791C6.6799 14.566 6.06736 15.1969 5.50004 15.8675ZM11 18.3333C9.53896 18.3366 8.11089 17.8989 6.90254 17.0775C7.34882 16.5656 7.8264 16.0819 8.33254 15.6291L8.62588 15.3816C9.71044 14.4695 10.9533 13.7642 12.2925 13.3008C12.8438 14.7913 13.273 16.3241 13.5759 17.8841C12.7507 18.1854 11.8785 18.3375 11 18.3333ZM15.2442 16.9675C14.9443 15.5802 14.5523 14.2144 14.0709 12.8791H14.3825C14.4187 12.8702 14.4564 12.8702 14.4925 12.8791H14.5934H14.685H15.125C16.0897 12.8819 17.0471 13.0461 17.9575 13.365C17.4573 14.8228 16.5073 16.0842 15.2442 16.9675ZM15.125 11C14.9325 11 14.74 11 14.5567 11C14.438 10.985 14.3179 10.985 14.1992 11C13.9501 11.0153 13.7021 11.0459 13.4567 11.0916H13.365C13.0992 10.4775 12.8242 9.88165 12.5217 9.25831C14.1631 8.69461 15.7396 7.95709 17.2242 7.05831C17.9607 8.24023 18.3454 9.60743 18.3334 11C18.3334 11.1558 18.3334 11.3116 18.3334 11.4675C17.2945 11.1468 16.2122 10.9891 15.125 11Z" fill="#111827"/>
</svg>
