<svg width="22" height="22" viewBox="0 0 22 22" fill="none" xmlns="http://www.w3.org/2000/svg">
<path d="M15.895 5.00498C15.6775 5.00498 15.4648 5.06949 15.2839 5.19036C15.103 5.31123 14.962 5.48303 14.8788 5.68403C14.7955 5.88503 14.7737 6.1062 14.8162 6.31958C14.8586 6.53296 14.9634 6.72896 15.1172 6.8828C15.2711 7.03663 15.4671 7.1414 15.6804 7.18384C15.8938 7.22629 16.115 7.2045 16.316 7.12125C16.517 7.03799 16.6888 6.897 16.8097 6.71611C16.9305 6.53521 16.995 6.32254 16.995 6.10498C16.995 5.81324 16.8791 5.53345 16.6729 5.32716C16.4666 5.12087 16.1868 5.00498 15.895 5.00498ZM20.1117 7.22331C20.0939 6.46275 19.9514 5.71027 19.69 4.99581C19.457 4.38452 19.0942 3.83099 18.6267 3.37331C18.1728 2.90345 17.618 2.54297 17.0042 2.31915C16.2916 2.04979 15.5383 1.90409 14.7767 1.88831C13.805 1.83331 13.4934 1.83331 11 1.83331C8.50671 1.83331 8.19504 1.83331 7.22337 1.88831C6.46176 1.90409 5.70844 2.04979 4.99587 2.31915C4.38324 2.54524 3.8289 2.90541 3.37337 3.37331C2.90351 3.82723 2.54304 4.38205 2.31921 4.99581C2.04985 5.70838 1.90415 6.4617 1.88837 7.22331C1.83337 8.19498 1.83337 8.50665 1.83337 11C1.83337 13.4933 1.83337 13.805 1.88837 14.7766C1.90415 15.5383 2.04985 16.2916 2.31921 17.0041C2.54304 17.6179 2.90351 18.1727 3.37337 18.6266C3.8289 19.0945 4.38324 19.4547 4.99587 19.6808C5.70844 19.9502 6.46176 20.0959 7.22337 20.1116C8.19504 20.1666 8.50671 20.1666 11 20.1666C13.4934 20.1666 13.805 20.1666 14.7767 20.1116C15.5383 20.0959 16.2916 19.9502 17.0042 19.6808C17.618 19.457 18.1728 19.0965 18.6267 18.6266C19.0963 18.1707 19.4593 17.6167 19.69 17.0041C19.9514 16.2897 20.0939 15.5372 20.1117 14.7766C20.1117 13.805 20.1667 13.4933 20.1667 11C20.1667 8.50665 20.1667 8.19498 20.1117 7.22331ZM18.4617 14.6666C18.455 15.2485 18.3496 15.825 18.15 16.3716C18.0037 16.7706 17.7686 17.131 17.4625 17.4258C17.1652 17.7288 16.8055 17.9634 16.4084 18.1133C15.8618 18.3129 15.2852 18.4183 14.7034 18.425C13.7867 18.4708 13.4475 18.48 11.0367 18.48C8.62587 18.48 8.28671 18.48 7.37004 18.425C6.76586 18.4363 6.16425 18.3433 5.59171 18.15C5.21201 17.9924 4.86878 17.7584 4.58337 17.4625C4.27912 17.168 4.04698 16.8072 3.90504 16.4083C3.68124 15.8539 3.55711 15.2643 3.53837 14.6666C3.53837 13.75 3.48337 13.4108 3.48337 11C3.48337 8.58915 3.48337 8.24998 3.53837 7.33331C3.54248 6.73845 3.65108 6.14893 3.85921 5.59165C4.02058 5.20473 4.26828 4.85983 4.58337 4.58331C4.86187 4.26813 5.20605 4.01782 5.59171 3.84998C6.15046 3.64835 6.73937 3.54297 7.33337 3.53831C8.25004 3.53831 8.58921 3.48331 11 3.48331C13.4109 3.48331 13.75 3.48331 14.6667 3.53831C15.2486 3.54499 15.8251 3.65037 16.3717 3.84998C16.7883 4.00458 17.1621 4.25592 17.4625 4.58331C17.7629 4.86489 17.9977 5.20915 18.15 5.59165C18.3538 6.14984 18.4592 6.73911 18.4617 7.33331C18.5075 8.24998 18.5167 8.58915 18.5167 11C18.5167 13.4108 18.5075 13.75 18.4617 14.6666ZM11 6.29748C10.0704 6.29929 9.16209 6.57663 8.38997 7.09445C7.61786 7.61226 7.01655 8.34733 6.66204 9.20675C6.30752 10.0662 6.2157 11.0114 6.39819 11.923C6.58067 12.8346 7.02926 13.6716 7.68728 14.3284C8.3453 14.9851 9.18322 15.4321 10.0952 15.6128C11.0071 15.7935 11.9522 15.6998 12.8109 15.3436C13.6696 14.9874 14.4035 14.3847 14.9198 13.6116C15.4361 12.8385 15.7117 11.9297 15.7117 11C15.7129 10.3813 15.5918 9.76854 15.3553 9.19686C15.1189 8.62518 14.7717 8.10589 14.3338 7.66886C13.896 7.23183 13.376 6.88568 12.8039 6.65033C12.2317 6.41498 11.6187 6.29506 11 6.29748ZM11 14.0525C10.3963 14.0525 9.80614 13.8735 9.30416 13.538C8.80218 13.2026 8.41093 12.7259 8.1799 12.1681C7.94886 11.6103 7.88841 10.9966 8.00619 10.4045C8.12398 9.81234 8.4147 9.26844 8.8416 8.84154C9.2685 8.41464 9.8124 8.12391 10.4045 8.00613C10.9967 7.88835 11.6104 7.9488 12.1682 8.17984C12.726 8.41087 13.2027 8.80212 13.5381 9.3041C13.8735 9.80608 14.0525 10.3963 14.0525 11C14.0525 11.4008 13.9736 11.7978 13.8202 12.1681C13.6668 12.5385 13.4419 12.875 13.1585 13.1584C12.875 13.4419 12.5385 13.6667 12.1682 13.8201C11.7978 13.9735 11.4009 14.0525 11 14.0525Z" fill="#111827"/>
</svg>
