<svg width="22" height="22" viewBox="0 0 22 22" fill="none" xmlns="http://www.w3.org/2000/svg">
<path d="M21.0753 3.621C21.0754 3.45909 21.0326 3.30004 20.9512 3.16005C20.8699 3.02006 20.7529 2.90414 20.6121 2.82408C20.4714 2.74402 20.312 2.70269 20.1501 2.7043C19.9882 2.70591 19.8296 2.7504 19.6905 2.83324C19.1539 3.15259 18.5763 3.39716 17.9735 3.56015C17.1128 2.82153 16.0149 2.41735 14.8807 2.42148C13.6364 2.42291 12.4413 2.90786 11.5479 3.77391C10.6545 4.63997 10.1325 5.81934 10.0924 7.063C7.63936 6.67182 5.41612 5.39148 3.84662 3.46613C3.75206 3.3514 3.63128 3.26109 3.49449 3.20281C3.3577 3.14454 3.20891 3.12002 3.06065 3.13132C2.91248 3.14352 2.76952 3.19163 2.64411 3.27149C2.51871 3.35134 2.41465 3.46055 2.34092 3.58965C1.96282 4.24948 1.74567 4.98918 1.70709 5.74868C1.66852 6.50819 1.80961 7.26608 2.11892 7.96082L2.11713 7.96261C1.97811 8.04823 1.86339 8.16809 1.78393 8.31071C1.70446 8.45334 1.66292 8.61397 1.66327 8.77723C1.66159 8.91192 1.66966 9.04655 1.68744 9.18006C1.78107 10.3335 2.29224 11.4131 3.1251 12.2165C3.0686 12.3242 3.03412 12.442 3.02367 12.5631C3.01322 12.6842 3.02701 12.8062 3.06423 12.9219C3.42733 14.0532 4.19952 15.0083 5.22968 15.6003C4.18307 16.005 3.05298 16.1461 1.93898 16.0112C1.7328 15.9853 1.52395 16.0303 1.34668 16.1387C1.16941 16.2472 1.03426 16.4126 0.96339 16.608C0.892521 16.8033 0.890144 17.0169 0.956648 17.2138C1.02315 17.4107 1.15459 17.5791 1.3294 17.6914C3.24532 18.9254 5.4761 19.5815 7.75502 19.5812C10.3393 19.6103 12.8608 18.7844 14.9272 17.2322C16.9937 15.6799 18.4891 13.4883 19.1811 10.9982C19.5047 9.9134 19.67 8.78758 19.6717 7.65558C19.6717 7.5956 19.6717 7.53384 19.6708 7.47207C20.1494 6.95593 20.5201 6.34943 20.7613 5.68815C21.0025 5.02686 21.1092 4.32408 21.0753 3.621ZM18.0442 6.56525C17.8928 6.74432 17.8162 6.97482 17.8303 7.20889C17.8392 7.36014 17.8383 7.51231 17.8383 7.65558C17.8364 8.61216 17.6962 9.56344 17.4221 10.4799C16.8569 12.5987 15.5971 14.4665 13.8444 15.7843C12.0917 17.102 9.9474 17.7935 7.75502 17.7479C6.96749 17.7481 6.18268 17.6556 5.41681 17.4722C6.39344 17.1574 7.3066 16.6722 8.11399 16.039C8.2627 15.9219 8.37153 15.7616 8.42555 15.5802C8.47958 15.3989 8.47615 15.2052 8.41573 15.0258C8.35532 14.8464 8.24088 14.6902 8.08812 14.5784C7.93536 14.4667 7.75176 14.4049 7.56252 14.4017C6.80062 14.3898 6.07306 14.0827 5.53314 13.545C5.67011 13.519 5.80618 13.4868 5.94135 13.4483C6.13936 13.3919 6.31264 13.2706 6.43329 13.1038C6.55394 12.9369 6.61494 12.7344 6.60646 12.5287C6.59798 12.323 6.52053 12.1261 6.38656 11.9698C6.2526 11.8135 6.06992 11.7068 5.86795 11.6669C5.42569 11.5796 5.00953 11.3914 4.65182 11.1171C4.29411 10.8427 4.00448 10.4896 3.80545 10.0851C3.97111 10.1077 4.13784 10.1218 4.30496 10.1272C4.50349 10.1302 4.69783 10.07 4.85988 9.95522C5.02193 9.84048 5.14329 9.67717 5.20641 9.48891C5.26689 9.29895 5.26377 9.09444 5.19754 8.9064C5.13131 8.71836 5.00557 8.55705 4.83938 8.44692C4.43618 8.17831 4.1059 7.81389 3.87812 7.3863C3.65034 6.9587 3.53218 6.48129 3.5342 5.99682C3.5342 5.93595 3.53599 5.87508 3.53958 5.8151C5.59407 7.73116 8.25887 8.86068 11.0645 9.00463C11.2061 9.01021 11.3471 8.98354 11.477 8.92662C11.6068 8.86971 11.7219 8.78404 11.8138 8.6761C11.9047 8.56711 11.9691 8.4385 12.0018 8.30041C12.0346 8.16231 12.0349 8.0185 12.0026 7.88028C11.9502 7.66153 11.9234 7.43742 11.9229 7.21247C11.9238 6.4283 12.2356 5.67648 12.7901 5.12198C13.3446 4.56749 14.0965 4.25561 14.8806 4.25478C15.2841 4.2537 15.6834 4.33628 16.0533 4.49729C16.4233 4.6583 16.7558 4.89425 17.03 5.19025C17.1357 5.30399 17.2688 5.3888 17.4165 5.43659C17.5643 5.48439 17.7218 5.49359 17.8741 5.46332C18.2507 5.39004 18.6218 5.29134 18.985 5.16791C18.7373 5.6748 18.4207 6.14503 18.0442 6.56525Z" fill="#111827"/>
</svg>
