<svg width="22" height="22" viewBox="0 0 22 22" fill="none" xmlns="http://www.w3.org/2000/svg">
<path d="M20.1667 8.86418C20.1088 8.69651 20.0035 8.54924 19.8636 8.44022C19.7237 8.33121 19.5551 8.26513 19.3784 8.25001L14.1626 7.48918L11.8251 2.75001C11.75 2.59503 11.6328 2.46432 11.4869 2.37287C11.341 2.28142 11.1723 2.23291 11.0001 2.23291C10.8279 2.23291 10.6591 2.28142 10.5132 2.37287C10.3673 2.46432 10.2501 2.59503 10.1751 2.75001L7.83756 7.48001L2.62173 8.25001C2.45207 8.27412 2.29257 8.34531 2.16133 8.45549C2.03009 8.56567 1.93236 8.71043 1.87923 8.87334C1.83059 9.03255 1.82623 9.20199 1.8666 9.36348C1.90698 9.52497 1.99056 9.67243 2.10839 9.79001L5.89423 13.4567L4.97756 18.6633C4.94484 18.8352 4.96197 19.0128 5.02694 19.1753C5.09191 19.3377 5.20201 19.4781 5.34423 19.58C5.48284 19.6791 5.64634 19.7376 5.81635 19.7489C5.98637 19.7603 6.15618 19.724 6.30673 19.6442L11.0001 17.1967L15.6751 19.6533C15.8037 19.7259 15.949 19.7638 16.0967 19.7633C16.2909 19.764 16.4803 19.7031 16.6376 19.5892C16.7798 19.4873 16.8899 19.3469 16.9548 19.1844C17.0198 19.022 17.037 18.8444 17.0042 18.6725L16.0876 13.4658L19.8734 9.79918C20.0057 9.68705 20.1036 9.53967 20.1555 9.37416C20.2074 9.20866 20.2113 9.03181 20.1667 8.86418ZM14.5292 12.5308C14.4217 12.6348 14.3413 12.7635 14.295 12.9057C14.2486 13.0479 14.2378 13.1993 14.2634 13.3467L14.9234 17.1875L11.4767 15.3542C11.3441 15.2836 11.1961 15.2466 11.0459 15.2466C10.8956 15.2466 10.7477 15.2836 10.6151 15.3542L7.16839 17.1875L7.82839 13.3467C7.854 13.1993 7.84316 13.0479 7.79683 12.9057C7.75049 12.7635 7.67006 12.6348 7.56256 12.5308L4.81256 9.78084L8.67173 9.22168C8.82023 9.20102 8.96139 9.14426 9.08285 9.05636C9.20431 8.96846 9.30236 8.85211 9.36839 8.71751L11.0001 5.22501L12.7234 8.72668C12.7894 8.86128 12.8875 8.97763 13.0089 9.06553C13.1304 9.15342 13.2716 9.21019 13.4201 9.23084L17.2792 9.79001L14.5292 12.5308Z" fill="#111827"/>
<path d="M14.5292 12.5308C14.4217 12.6348 14.3413 12.7635 14.295 12.9057C14.2486 13.0479 14.2378 13.1993 14.2634 13.3467L14.9234 17.1875L11.4767 15.3542C11.3441 15.2836 11.1961 15.2466 11.0459 15.2466C10.8956 15.2466 10.7477 15.2836 10.6151 15.3542L7.16839 17.1875L7.82839 13.3467C7.854 13.1993 7.84316 13.0479 7.79683 12.9057C7.75049 12.7635 7.67006 12.6348 7.56256 12.5308L4.81256 9.78084L8.67173 9.22168C8.82023 9.20102 8.96139 9.14426 9.08285 9.05636C9.20431 8.96846 9.30236 8.85211 9.36839 8.71751L11.0001 5.22501L12.7234 8.72668C12.7894 8.86128 12.8875 8.97763 13.0089 9.06553C13.1304 9.15342 13.2716 9.21019 13.4201 9.23084L17.2792 9.79001L14.5292 12.5308Z" fill="#111827"/>
</svg>
