<svg width="22" height="22" viewBox="0 0 22 22" fill="none" xmlns="http://www.w3.org/2000/svg">
<path d="M11.0004 2.2326C10.8282 2.2326 10.6595 2.28111 10.5136 2.37256C10.3677 2.46402 10.2505 2.59472 10.1754 2.74971L7.83793 7.47971L2.62209 8.24971C2.45244 8.27382 2.29294 8.34501 2.1617 8.45518C2.03046 8.56536 1.93272 8.71012 1.87959 8.87304C1.83096 9.03224 1.8266 9.20168 1.86697 9.36317C1.90734 9.52467 1.99093 9.67212 2.10876 9.78971L5.89459 13.4564L4.97793 18.663C4.9452 18.8349 4.96234 19.0125 5.02731 19.175C5.09228 19.3374 5.20238 19.4778 5.34459 19.5797C5.48321 19.6788 5.6467 19.7373 5.81672 19.7486C5.98674 19.76 6.15655 19.7237 6.30709 19.6439L11.0004 17.1964V2.2326Z" fill="#111827"/>
<path d="M20.1667 8.86387C20.1088 8.6962 20.0035 8.54893 19.8636 8.43992C19.7236 8.3309 19.5551 8.26483 19.3783 8.24971L14.1625 7.48887L11.825 2.74971C11.7499 2.59472 11.6327 2.46402 11.4868 2.37256C11.3409 2.28111 11.1722 2.2326 11 2.2326V5.22471V15.2475V17.1964L15.675 19.653C15.8037 19.7256 15.949 19.7635 16.0967 19.763C16.2908 19.7637 16.4802 19.7027 16.6375 19.5889C16.7797 19.487 16.8898 19.3465 16.9548 19.1841C17.0198 19.0217 17.0369 18.8441 17.0042 18.6722L16.0875 13.4655L19.8733 9.79887C20.0057 9.68674 20.1035 9.53937 20.1554 9.37386C20.2073 9.20835 20.2112 9.03151 20.1667 8.86387Z" fill="#374151"/>
</svg>
