<svg width="22" height="22" viewBox="0 0 22 22" fill="none" xmlns="http://www.w3.org/2000/svg">
<path d="M18.2509 14.2175H14.0984C13.8553 14.2175 13.6221 14.3141 13.4502 14.486C13.2783 14.6579 13.1817 14.891 13.1817 15.1341C13.1817 15.3773 13.2783 15.6104 13.4502 15.7823C13.6221 15.9542 13.8553 16.0508 14.0984 16.0508H16.2984C15.2872 17.1075 13.9832 17.8377 12.5539 18.1476C11.1246 18.4575 9.63532 18.333 8.27734 17.79C6.91936 17.247 5.75475 16.3103 4.93317 15.1004C4.11158 13.8905 3.67054 12.4625 3.66671 11C3.66671 10.7569 3.57013 10.5237 3.39822 10.3518C3.22631 10.1799 2.99316 10.0833 2.75004 10.0833C2.50693 10.0833 2.27377 10.1799 2.10186 10.3518C1.92995 10.5237 1.83337 10.7569 1.83337 11C1.83822 12.79 2.36708 14.5395 3.35468 16.0325C4.34228 17.5255 5.7454 18.6966 7.39089 19.4014C9.03637 20.1062 10.8522 20.3138 12.6143 19.9986C14.3764 19.6833 16.0076 18.8591 17.3067 17.6275V19.25C17.3067 19.4931 17.4033 19.7263 17.5752 19.8982C17.7471 20.0701 17.9803 20.1666 18.2234 20.1666C18.4665 20.1666 18.6996 20.0701 18.8716 19.8982C19.0435 19.7263 19.14 19.4931 19.14 19.25V15.125C19.1378 14.8881 19.0439 14.6614 18.8782 14.4922C18.7124 14.323 18.4876 14.2246 18.2509 14.2175ZM11 1.83331C8.65006 1.84002 6.39241 2.74898 4.69337 4.37248V2.74998C4.69337 2.50686 4.5968 2.27371 4.42489 2.1018C4.25298 1.92989 4.01982 1.83331 3.77671 1.83331C3.53359 1.83331 3.30043 1.92989 3.12853 2.1018C2.95662 2.27371 2.86004 2.50686 2.86004 2.74998V6.87498C2.86004 7.11809 2.95662 7.35125 3.12853 7.52316C3.30043 7.69507 3.53359 7.79165 3.77671 7.79165H7.90171C8.14482 7.79165 8.37798 7.69507 8.54989 7.52316C8.7218 7.35125 8.81837 7.11809 8.81837 6.87498C8.81837 6.63186 8.7218 6.39871 8.54989 6.2268C8.37798 6.05489 8.14482 5.95831 7.90171 5.95831H5.70171C6.7123 4.90219 8.01546 4.17219 9.44391 3.862C10.8724 3.5518 12.3609 3.67558 13.7185 4.21744C15.0761 4.75929 16.2408 5.69451 17.0631 6.90303C17.8854 8.11156 18.3277 9.53825 18.3334 11C18.3334 11.2431 18.43 11.4763 18.6019 11.6482C18.7738 11.8201 19.0069 11.9166 19.25 11.9166C19.4932 11.9166 19.7263 11.8201 19.8982 11.6482C20.0701 11.4763 20.1667 11.2431 20.1667 11C20.1667 9.7962 19.9296 8.6042 19.4689 7.49205C19.0083 6.3799 18.3331 5.36937 17.4819 4.51817C16.6306 3.66696 15.6201 2.99175 14.508 2.53108C13.3958 2.07042 12.2038 1.83331 11 1.83331Z" fill="#111827"/>
</svg>
