<svg width="22" height="22" viewBox="0 0 22 22" fill="none" xmlns="http://www.w3.org/2000/svg">
<path d="M14.6667 5.50001C14.6667 5.2569 14.5701 5.02374 14.3982 4.85183C14.2263 4.67992 13.9932 4.58334 13.75 4.58334H2.75004C2.50693 4.58334 2.27377 4.67992 2.10186 4.85183C1.92995 5.02374 1.83337 5.2569 1.83337 5.50001C1.83337 5.74313 1.92995 5.97628 2.10186 6.14819C2.27377 6.3201 2.50693 6.41668 2.75004 6.41668H7.33337V16.5C7.33337 16.7431 7.42995 16.9763 7.60186 17.1482C7.77377 17.3201 8.00693 17.4167 8.25004 17.4167C8.49316 17.4167 8.72631 17.3201 8.89822 17.1482C9.07013 16.9763 9.16671 16.7431 9.16671 16.5V6.41668H13.75C13.9932 6.41668 14.2263 6.3201 14.3982 6.14819C14.5701 5.97628 14.6667 5.74313 14.6667 5.50001ZM19.25 10.0833H13.75C13.5069 10.0833 13.2738 10.1799 13.1019 10.3518C12.93 10.5237 12.8334 10.7569 12.8334 11C12.8334 11.2431 12.93 11.4763 13.1019 11.6482C13.2738 11.8201 13.5069 11.9167 13.75 11.9167H15.5834V16.5C15.5834 16.7431 15.68 16.9763 15.8519 17.1482C16.0238 17.3201 16.2569 17.4167 16.5 17.4167C16.7432 17.4167 16.9763 17.3201 17.1482 17.1482C17.3201 16.9763 17.4167 16.7431 17.4167 16.5V11.9167H19.25C19.4932 11.9167 19.7263 11.8201 19.8982 11.6482C20.0701 11.4763 20.1667 11.2431 20.1667 11C20.1667 10.7569 20.0701 10.5237 19.8982 10.3518C19.7263 10.1799 19.4932 10.0833 19.25 10.0833Z" fill="#111827"/>
</svg>
